<?xml version="1.0" encoding="UTF-8"?>
<svg version="1.1" xmlns="http://www.w3.org/2000/svg" width="1200" height="675">
<path d="M0 0 C396 0 792 0 1200 0 C1200 222.75 1200 445.5 1200 675 C804 675 408 675 0 675 C0 452.25 0 229.5 0 0 Z " fill="#12151D" transform="translate(0,0)"/>
<path d="M0 0 C205.92 0 411.84 0 624 0 C624 65.34 624 130.68 624 198 C418.08 198 212.16 198 0 198 C0 132.66 0 67.32 0 0 Z " fill="#FEFEFE" transform="translate(288,376)"/>
<path d="M0 0 C0.04988602 5.3527698 0.08594697 10.70540066 0.10986328 16.05834961 C0.11984632 17.87477988 0.1334375 19.69119439 0.15087891 21.50756836 C0.32686823 40.32289749 -0.94440651 54.11466723 -14.41796875 68.4375 C-18.33733153 72.32721556 -22.3843863 76.06504307 -26.49609375 79.75 C-28.03146051 81.12967434 -29.54040204 82.54040204 -31 84 C-6.08158974 66.64960159 -6.08158974 66.64960159 8 41 C8.33957846 37.74544679 8.41475311 34.52049676 8.4375 31.25 C8.48680664 29.97576172 8.48680664 29.97576172 8.53710938 28.67578125 C8.55739991 26.34052513 8.53235336 24.27502689 8 22 C5.56783115 20.20804151 5.56783115 20.20804151 3 19 C2.51171875 16.51953125 2.51171875 16.51953125 2.6875 13.8125 C2.73261719 12.91144531 2.77773438 12.01039063 2.82421875 11.08203125 C2.88222656 10.39496094 2.94023437 9.70789063 3 9 C8.82902533 9.96735343 13.77323157 11.74391972 18 16 C19.3542559 20.45338921 19.12939753 24.63592708 18.875 29.25 C18.86339844 30.42691406 18.85179687 31.60382813 18.83984375 32.81640625 C18.47832692 45.81655136 14.05334566 54.85003316 5.00390625 64.0234375 C0.95393407 67.78359516 -3.36161908 71.01800302 -7.9140625 74.14453125 C-8.47591248 74.53099319 -9.03776245 74.91745514 -9.61663818 75.31562805 C-11.40903361 76.54678976 -13.20402521 77.77406646 -15 79 C-15.58452942 79.39910583 -16.16905884 79.79821167 -16.77130127 80.20941162 C-20.32655051 82.63461489 -23.88660502 85.05267166 -27.44921875 87.46704102 C-29.26353448 88.69667284 -31.0771242 89.92736981 -32.890625 91.15820312 C-39.24190261 95.46670432 -45.603983 99.75806565 -52 104 C-50.81921875 103.41089844 -49.6384375 102.82179688 -48.421875 102.21484375 C-46.86488617 101.45510823 -45.30757764 100.69602765 -43.75 99.9375 C-42.97269531 99.54755859 -42.19539063 99.15761719 -41.39453125 98.75585938 C-40.64042969 98.39169922 -39.88632812 98.02753906 -39.109375 97.65234375 C-38.41811523 97.31195068 -37.72685547 96.97155762 -37.01464844 96.62084961 C-34.57207682 95.86812789 -33.37379298 96.1168779 -31 97 C-28.640625 98.6015625 -28.640625 98.6015625 -26.25 100.625 C-25.45078125 101.27726563 -24.6515625 101.92953125 -23.828125 102.6015625 C-22 105 -22 105 -22 112 C-35.86 112 -49.72 112 -64 112 C-64 106 -64 106 -62.5625 103.5625 C-59.5633133 100.5633133 -56.33483409 98.06711976 -52.92578125 95.55078125 C-50.89402939 94.13484525 -50.89402939 94.13484525 -50 92 C-50.54914063 91.7421875 -51.09828125 91.484375 -51.6640625 91.21875 C-69.23069448 82.05355071 -94.93491977 66.10482368 -102 47 C-104.77043861 37.32547187 -106.0921624 25.91824317 -104 16 C-100.15819558 10.91161388 -95.00295507 10.09242966 -89 9 C-88.8647597 10.60184626 -88.76789153 12.20696626 -88.6875 13.8125 C-88.60048828 15.15248047 -88.60048828 15.15248047 -88.51171875 16.51953125 C-88.67285156 17.33808594 -88.83398438 18.15664063 -89 19 C-90.23169922 19.65742188 -90.23169922 19.65742188 -91.48828125 20.328125 C-92.73158203 21.15570313 -92.73158203 21.15570313 -94 22 C-94.47545808 24.87464457 -94.61979496 27.07677129 -94.5 29.9375 C-94.479375 30.69949707 -94.45875 31.46149414 -94.4375 32.24658203 C-93.96493999 43.93998097 -91.41651266 53.46758783 -83 62 C-73.94257959 70.35108577 -63.95038415 77.7528994 -54 85 C-54.75410156 84.2471875 -55.50820313 83.494375 -56.28515625 82.71875 C-57.7984041 81.20332481 -59.30890282 79.68509259 -60.80859375 78.15625 C-63.42993404 75.49090639 -65.96229412 73.0288811 -68.9375 70.75 C-77.48247653 63.71296051 -83.99075935 52.55287248 -85.29092407 41.5345459 C-85.69233444 35.81921747 -85.71288999 30.11217035 -85.65185547 24.38525391 C-85.62473636 21.34544802 -85.65187426 18.30923395 -85.68359375 15.26953125 C-85.68029486 13.3333252 -85.67389946 11.39712137 -85.6640625 9.4609375 C-85.67418365 8.55475677 -85.68430481 7.64857605 -85.69473267 6.7149353 C-85.65063745 4.36836544 -85.57022523 2.27667718 -85 0 C-80.55143473 -3.79169047 -74.60028086 -4.71870181 -69 -6 C-68.10023438 -6.20882813 -67.20046875 -6.41765625 -66.2734375 -6.6328125 C-44.34977236 -10.82844653 -20.49444119 -8.81074486 0 0 Z " fill="#CF3023" transform="translate(431,423)"/>
<path d="M0 0 C2.06279119 -0.00218696 4.12504731 -0.02037379 6.18774414 -0.03930664 C7.49936523 -0.04124023 8.81098633 -0.04317383 10.16235352 -0.04516602 C11.95274048 -0.05132935 11.95274048 -0.05132935 13.77929688 -0.05761719 C17.21035195 0.19075675 19.89407485 1.09441941 23.13500977 2.18530273 C25.48321883 1.57309109 27.81567038 0.89913303 30.13500977 0.18530273 C33.30487452 -0.13015173 36.45146203 -0.13977052 39.63500977 -0.12719727 C40.45098633 -0.14331055 41.26696289 -0.15942383 42.10766602 -0.17602539 C48.79165748 -0.18138975 53.20470663 1.32056438 58.88500977 4.93530273 C62.53354267 8.58383564 63.95975749 12.54075701 64.49577332 17.57066345 C64.48911148 18.74536697 64.48244965 19.9200705 64.47558594 21.13037109 C64.47624306 22.11213821 64.47624306 22.11213821 64.47691345 23.11373901 C64.47484351 25.25119126 64.45159989 27.38783335 64.42797852 29.52514648 C64.42237612 31.01729402 64.41810907 32.50944712 64.41511536 34.00160217 C64.4037171 37.90942901 64.37429399 41.8169159 64.34100342 45.72460938 C64.31019358 49.71992394 64.29658681 53.71529398 64.28149414 57.71069336 C64.24941868 65.53573532 64.19669269 73.36042789 64.13500977 81.18530273 C57.86500977 81.18530273 51.59500977 81.18530273 45.13500977 81.18530273 C44.80500977 60.72530273 44.47500977 40.26530273 44.13500977 19.18530273 C39.53872497 16.51448234 39.53872497 16.51448234 31.13500977 17.18530273 C31.13500977 37.97530273 31.13500977 58.76530273 31.13500977 80.18530273 C25.85500977 80.18530273 20.57500977 80.18530273 15.13500977 80.18530273 C15.12042725 78.41896484 15.10584473 76.65262695 15.09082031 74.83276367 C15.03914982 68.99321763 14.9738586 63.15390907 14.89929485 57.31461716 C14.85458948 53.77462801 14.81533414 50.23475398 14.78857422 46.69458008 C14.75756137 42.62348342 14.70277261 38.5530073 14.64672852 34.48217773 C14.64033859 33.2122699 14.63394867 31.94236206 14.62736511 30.63397217 C14.60757095 29.45304993 14.58777679 28.27212769 14.56738281 27.05541992 C14.55072823 25.4965506 14.55072823 25.4965506 14.53373718 23.90618896 C14.28917557 20.72743522 14.28917557 20.72743522 11.13500977 17.18530273 C7.50500977 16.85530273 3.87500977 16.52530273 0.13500977 16.18530273 C0.13500977 37.30530273 0.13500977 58.42530273 0.13500977 80.18530273 C-5.80499023 80.18530273 -11.74499023 80.18530273 -17.86499023 80.18530273 C-17.86499023 54.11530273 -17.86499023 28.04530273 -17.86499023 1.18530273 C-11.84209359 -0.01927659 -6.1252206 -0.00072789 0 0 Z " fill="#CE2E21" transform="translate(733.864990234375,434.814697265625)"/>
<path d="M0 0 C5.51342732 -0.12452146 11.02601847 -0.21476997 16.54052734 -0.2746582 C18.41241737 -0.29964898 20.28421135 -0.33365373 22.15576172 -0.37719727 C42.87521683 -0.84683825 42.87521683 -0.84683825 50 5 C54.37979476 9.7571733 57.08406516 13.80227002 57.19287109 20.40454102 C57.20893402 21.2929921 57.22499695 22.18144318 57.24154663 23.09681702 C57.28628052 27.17464266 57.32709841 31.25230795 57.35009766 35.33032227 C57.36660352 37.47268579 57.39382185 39.61499547 57.43212891 41.75708008 C57.48729401 44.86047681 57.50883642 47.96258317 57.5234375 51.06640625 C57.54610687 52.01157608 57.56877625 52.95674591 57.59213257 53.93055725 C57.56857704 61.45596437 55.50570315 67.74877973 50.66317749 73.62110901 C44.38366249 79.47054903 36.00152505 80.45462258 27.80859375 80.29296875 C26.97787857 80.28872391 26.14716339 80.28447906 25.29127502 80.28010559 C22.67300118 80.26349314 20.05553585 80.2258763 17.4375 80.1875 C15.64779768 80.17243053 13.85808313 80.15874612 12.06835938 80.14648438 C7.71193446 80.1136472 3.35610365 80.06198936 -1 80 C0.21804321 78.72987061 0.21804321 78.72987061 1.46069336 77.43408203 C5.54318901 71.67010337 4.69873926 64.83040855 4.62890625 58.0546875 C4.62973597 56.5969322 4.63219923 55.13917701 4.63621521 53.681427 C4.63906398 50.63677578 4.62446041 47.59286399 4.59692383 44.54833984 C4.56278036 40.65313119 4.56888739 36.75923838 4.5875864 32.86396599 C4.59817044 29.85780939 4.58920714 26.85195731 4.57420158 23.84582901 C4.56903361 22.40977 4.56948474 20.97367902 4.57574654 19.53762436 C4.58121704 17.53008642 4.55793112 15.52253281 4.53344727 13.51513672 C4.5241494 11.80473709 4.5241494 11.80473709 4.5146637 10.05978394 C3.89459759 6.37336049 2.44554987 4.75784905 0 2 C0 1.34 0 0.68 0 0 Z " fill="#CE2F22" transform="translate(470,436)"/>
<path d="M0 0 C41.38202247 0 41.38202247 0 47.875 5.75 C48.40867187 6.19859375 48.94234375 6.6471875 49.4921875 7.109375 C55.15582654 14.21093276 54.39335374 22.01773425 54.29296875 30.68359375 C54.28736582 32.10848034 54.28309902 33.53337275 54.28010559 34.95826721 C54.26871153 38.68855047 54.23929225 42.41847716 54.20599365 46.14862061 C54.17517458 49.96296365 54.1615751 53.77736492 54.14648438 57.59179688 C54.11441636 65.06137844 54.06169403 72.53059361 54 80 C47.73 80 41.46 80 35 80 C35 70.76 35 61.52 35 52 C29.72 52 24.44 52 19 52 C19 61.24 19 70.48 19 80 C12.73 80 6.46 80 0 80 C0 53.6 0 27.2 0 0 Z " fill="#CE2F22" transform="translate(651,436)"/>
<path d="M0 0 C43.99367089 0 43.99367089 0 50.47265625 6.46875 C52.77124617 11.78313693 52.54009027 16.77480132 52.4375 22.5 C52.44458984 23.61503906 52.45167969 24.73007812 52.45898438 25.87890625 C52.41465423 31.60090505 52.35614753 36.12869849 49 41 C46.8125 42.875 46.8125 42.875 45 44 C45.94875 44.598125 46.8975 45.19625 47.875 45.8125 C51 48 51 48 53 51 C53.22705078 53.91088867 53.22705078 53.91088867 53.1953125 57.41796875 C53.18886719 58.67158203 53.18242188 59.92519531 53.17578125 61.21679688 C53.15902344 62.52712891 53.14226563 63.83746094 53.125 65.1875 C53.11496639 66.52277987 53.1058412 67.85806689 53.09765625 69.19335938 C53.07405367 72.46231645 53.03818219 75.73118071 53 79 C47.06 79 41.12 79 35 79 C34.505 66.625 34.505 66.625 34 54 C29.48828685 51.74414342 24.02939074 52.38687621 19 52 C19 61.24 19 70.48 19 80 C12.73 80 6.46 80 0 80 C0 53.6 0 27.2 0 0 Z " fill="#CF3023" transform="translate(536,436)"/>
<path d="M0 0 C2.944955 1.70001843 5.4236544 3.79496806 8 6 C8.99 6.66 9.98 7.32 11 8 C11.55429688 7.57847656 12.10859375 7.15695313 12.6796875 6.72265625 C13.40414062 6.17480469 14.12859375 5.62695312 14.875 5.0625 C15.59429687 4.51722656 16.31359375 3.97195312 17.0546875 3.41015625 C20.77541612 0.71300157 23.40211421 0.52435664 28 1 C30.4375 3 30.4375 3 32 6 C32.53504397 11.52878774 31.74462179 15.76613462 30 21 C30.59167969 21.18175781 31.18335938 21.36351563 31.79296875 21.55078125 C42.67494824 25.01242236 42.67494824 25.01242236 46 30 C45.92641122 34.04738292 45.70897065 36.22657748 42.9375 39.25 C39.37696723 41.37116846 35.92429923 42.66972908 32 44 C32.05220703 45.32064453 32.05220703 45.32064453 32.10546875 46.66796875 C32.13253906 47.82941406 32.15960938 48.99085937 32.1875 50.1875 C32.23970703 51.91033203 32.23970703 51.91033203 32.29296875 53.66796875 C31.9490805 57.57912447 30.7940149 60.2059851 28 63 C20.17572865 63.78242713 16.02956857 60.58457392 10 56 C9.45730469 56.49371094 8.91460937 56.98742187 8.35546875 57.49609375 C7.64003906 58.13675781 6.92460938 58.77742188 6.1875 59.4375 C5.47980469 60.07558594 4.77210937 60.71367188 4.04296875 61.37109375 C0.25751107 64.38932674 -3.30784205 64.33515414 -8 64 C-10.61593153 62.16884793 -10.96989455 61.09031634 -12 58 C-12.15895578 53.15184869 -11.95503889 48.77519445 -11 44 C-11.59167969 43.82984375 -12.18335938 43.6596875 -12.79296875 43.484375 C-21.65088462 40.7677548 -21.65088462 40.7677548 -25 37 C-26.125 33.5625 -26.125 33.5625 -26 30 C-22.58501804 25.10519252 -17.49745961 22.9332913 -12 21 C-11.34 21 -10.68 21 -10 21 C-10.495 19.824375 -10.495 19.824375 -11 18.625 C-12.41721295 13.48760307 -13.12010336 7.81990933 -11.109375 2.7578125 C-8.66802347 -1.11052619 -4.09657577 -0.78200833 0 0 Z " fill="#11171F" transform="translate(70,40)"/>
<path d="M0 0 C0.70744354 0.00141495 1.41488708 0.0028299 2.14376831 0.00428772 C4.40578419 0.00989025 6.66770148 0.02244307 8.9296875 0.03515625 C10.46223815 0.04017093 11.99479036 0.04473389 13.52734375 0.04882812 C17.28652697 0.05901009 21.04549674 0.07858482 24.8046875 0.09765625 C24.8046875 4.71765625 24.8046875 9.33765625 24.8046875 14.09765625 C17.2146875 14.42765625 9.6246875 14.75765625 1.8046875 15.09765625 C1.4746875 20.70765625 1.1446875 26.31765625 0.8046875 32.09765625 C8.0646875 32.09765625 15.3246875 32.09765625 22.8046875 32.09765625 C22.8046875 37.04765625 22.8046875 41.99765625 22.8046875 47.09765625 C15.5446875 47.09765625 8.2846875 47.09765625 0.8046875 47.09765625 C1.2996875 55.51265625 1.2996875 55.51265625 1.8046875 64.09765625 C9.7246875 64.42765625 17.6446875 64.75765625 25.8046875 65.09765625 C25.8046875 70.04765625 25.8046875 74.99765625 25.8046875 80.09765625 C21.65976093 80.16686653 17.51687211 80.22649068 13.37182617 80.26245117 C11.96453016 80.27745502 10.55728026 80.29786488 9.15014648 80.32397461 C7.11690843 80.3607329 5.08429318 80.37746609 3.05078125 80.390625 C1.83060303 80.40633545 0.6104248 80.4220459 -0.64672852 80.43823242 C-5.47705146 79.97464106 -9.43787223 78.63804214 -13.15625 75.37890625 C-13.62289062 74.79109375 -14.08953125 74.20328125 -14.5703125 73.59765625 C-15.29347656 72.7159375 -15.29347656 72.7159375 -16.03125 71.81640625 C-18.24926111 68.54149052 -18.32896175 65.63663378 -18.35644531 61.8034668 C-18.37085663 60.18114388 -18.37085663 60.18114388 -18.38555908 58.52604675 C-18.38980896 57.35729507 -18.39405884 56.1885434 -18.3984375 54.984375 C-18.40413757 53.78206741 -18.40983765 52.57975983 -18.41571045 51.34101868 C-18.42516325 48.79481894 -18.43169554 46.24860695 -18.43554688 43.70239258 C-18.44524772 39.81114292 -18.4762675 35.92042243 -18.5078125 32.02929688 C-18.51434305 29.55599272 -18.51959331 27.08268479 -18.5234375 24.609375 C-18.5357843 23.44669601 -18.5481311 22.28401703 -18.56085205 21.08610535 C-18.54283399 14.53590674 -18.3512501 9.47844436 -13.66015625 4.453125 C-8.72180434 0.67673825 -6.09646682 -0.04562624 0 0 Z " fill="#CF3124" transform="translate(616.1953125,435.90234375)"/>
<path d="M0 0 C3.94684991 -0.07505712 7.89341427 -0.12902215 11.84082031 -0.16479492 C13.83152905 -0.18701479 15.82203968 -0.22516595 17.8125 -0.26367188 C35.08460526 -0.39452116 35.08460526 -0.39452116 40.67553711 4.45263672 C44.94906823 9.41297191 45.18155923 13.17782838 45.23828125 19.48046875 C45.246353 20.32668289 45.25442474 21.17289703 45.26274109 22.04475403 C45.27658588 23.83946686 45.28730627 25.63420606 45.29516602 27.42895508 C45.31232427 30.15953397 45.35619894 32.88888469 45.40039062 35.61914062 C45.41052259 37.36457445 45.41903712 39.11001855 45.42578125 40.85546875 C45.44328934 41.66614304 45.46079742 42.47681732 45.47883606 43.3120575 C45.45724747 49.02233338 44.35468355 52.33805455 41 57 C33.65951952 63.44675604 23.99971578 62.59018141 14.875 62.3125 C13.42712223 62.28736323 11.97920199 62.26455962 10.53125 62.24414062 C7.01993574 62.18962189 3.51024805 62.10365533 0 62 C0.97356445 61.12408203 0.97356445 61.12408203 1.96679688 60.23046875 C5.01073181 55.39409182 4.57266595 50.91828255 4.53125 45.3125 C4.5350769 44.17723877 4.53890381 43.04197754 4.54284668 41.87231445 C4.54556537 39.47508862 4.53820731 37.07783311 4.52148438 34.68066406 C4.50007587 31.01299858 4.52128935 27.34729211 4.546875 23.6796875 C4.54423172 21.34895401 4.53910674 19.01822174 4.53125 16.6875 C4.53934692 15.59155518 4.54744385 14.49561035 4.55578613 13.36645508 C4.51295754 7.23844053 4.51295754 7.23844053 1.96679688 1.76953125 C1.31775391 1.18558594 0.66871094 0.60164063 0 0 Z " fill="#FEFBFA" transform="translate(366,427)"/>
<path d="M0 0 C7.26 0 14.52 0 22 0 C22 26.4 22 52.8 22 80 C15.73 80 9.46 80 3 80 C3 59.21 3 38.42 3 17 C0.36 17 -2.28 17 -5 17 C-4.73958665 15.47734784 -4.46602684 13.95694316 -4.1875 12.4375 C-4.03667969 11.59058594 -3.88585937 10.74367188 -3.73046875 9.87109375 C-3 7 -3 7 0 0 Z " fill="#CF3125" transform="translate(851,436)"/>
<path d="M0 0 C7.26 0 14.52 0 22 0 C22 26.4 22 52.8 22 80 C15.73 80 9.46 80 3 80 C3 59.21 3 38.42 3 17 C0.36 17 -2.28 17 -5 17 C-4.80664062 16.35933594 -4.61328125 15.71867187 -4.4140625 15.05859375 C-4.02347656 13.76115234 -4.02347656 13.76115234 -3.625 12.4375 C-3.36976563 11.59058594 -3.11453125 10.74367188 -2.8515625 9.87109375 C-1.87767376 6.58756978 -0.94089435 3.29313024 0 0 Z " fill="#CF3225" transform="translate(815,436)"/>
<path d="M0 0 C3.96521085 -0.0499542 7.93029631 -0.08597787 11.89575195 -0.10986328 C13.89736377 -0.12470245 15.89888812 -0.15013361 17.90039062 -0.17578125 C27.88241158 -0.22606851 36.608581 0.1260067 45 6 C48.65058943 9.88611133 48.50519224 14.24780324 48.34765625 19.34375 C47.66467842 24.56200754 45.13812662 27.10929221 41.125 30.25 C35.19259497 33.57214681 30.27296675 34.28128132 23.625 34.125 C22.52091797 34.11146484 22.52091797 34.11146484 21.39453125 34.09765625 C19.5962112 34.07430144 17.79806089 34.03843836 16 34 C16.08081582 37.43846747 16.19366152 40.87515312 16.3125 44.3125 C16.33505859 45.28896484 16.35761719 46.26542969 16.38085938 47.27148438 C16.4340332 48.67817383 16.4340332 48.67817383 16.48828125 50.11328125 C16.51446533 50.97735596 16.54064941 51.84143066 16.56762695 52.73168945 C17.09002165 55.47227056 17.76075689 56.36844569 20 58 C23.61023099 58.73041853 23.61023099 58.73041853 27 59 C27 59.99 27 60.98 27 62 C17.76 62 8.52 62 -1 62 C-1 61.01 -1 60.02 -1 59 C0.134375 58.731875 1.26875 58.46375 2.4375 58.1875 C4.2009375 57.5996875 4.2009375 57.5996875 6 57 C6.95238893 54.14283322 7.13151635 52.3421888 7.14526367 49.37670898 C7.15164352 48.44241562 7.15802338 47.50812225 7.16459656 46.54551697 C7.16626579 45.03605247 7.16626579 45.03605247 7.16796875 43.49609375 C7.17129715 42.46186783 7.17462555 41.42764191 7.17805481 40.36207581 C7.1831181 38.17571457 7.18546332 35.98934561 7.18530273 33.80297852 C7.1874936 30.44730026 7.20566775 27.09194839 7.22460938 23.73632812 C7.22754246 21.61458446 7.22952782 19.49283923 7.23046875 17.37109375 C7.23765427 16.36275986 7.24483978 15.35442596 7.25224304 14.3155365 C7.24916641 13.38439529 7.24608978 12.45325409 7.24291992 11.49389648 C7.24434494 10.67243637 7.24576996 9.85097626 7.24723816 9.00462341 C7.18033418 6.77017758 7.18033418 6.77017758 5 5 C2.42938689 4.35232207 2.42938689 4.35232207 0 4 C0 2.68 0 1.36 0 0 Z " fill="#F8F8F9" transform="translate(588,227)"/>
<path d="M0 0 C1.30453125 -0.02578125 2.6090625 -0.0515625 3.953125 -0.078125 C7.99002713 0.27074309 10.34501764 1.09418276 13.75 3.25 C16.16671663 6.87507495 16.04082361 8.71684086 16.12890625 13.03515625 C16.14590073 13.69204941 16.1628952 14.34894257 16.18040466 15.02574158 C16.23346388 17.12123044 16.27380018 19.21670062 16.3125 21.3125 C16.35644993 23.41176975 16.40316025 25.51088757 16.45530701 27.60997009 C16.50181333 29.51205672 16.53932672 31.41435684 16.57641602 33.31665039 C16.55299364 36.18398428 16.55299364 36.18398428 17.75 38.25 C19.73 38.25 21.71 38.25 23.75 38.25 C23.75 39.24 23.75 40.23 23.75 41.25 C21.05112571 43.3932237 19.10568399 44.199188 15.6875 44.6875 C12.05403968 44.14634633 10.96588653 43.12244551 8.75 40.25 C8.42 39.26 8.09 38.27 7.75 37.25 C7.27949219 37.67152344 6.80898438 38.09304688 6.32421875 38.52734375 C5.70160156 39.07519531 5.07898438 39.62304688 4.4375 40.1875 C3.82261719 40.73277344 3.20773437 41.27804687 2.57421875 41.83984375 C-1.12166384 44.69683222 -4.74223298 44.63201415 -9.25 44.25 C-14.78846154 41.17307692 -14.78846154 41.17307692 -16.25 38.25 C-16.48907234 33.9466978 -16.55999271 30.9239884 -14.25 27.25 C-8.20805615 21.95313891 -0.6614458 19.08415694 6.75 16.25 C6.83131463 14.81344146 6.88933559 13.3755517 6.9375 11.9375 C6.97230469 11.13699219 7.00710938 10.33648437 7.04296875 9.51171875 C6.92810969 7.19523541 6.92810969 7.19523541 5.45703125 5.48828125 C2.55837485 3.38559457 0.18381342 3.75945523 -3.25 4.25 C-5.16666667 6.5 -5.16666667 6.5 -6.25 9.25 C-7.24 10.735 -7.24 10.735 -8.25 12.25 C-10.875 12.4375 -10.875 12.4375 -13.25 12.25 C-14.0625 9 -14.0625 9 -14.25 5.25 C-9.69673305 0.57367179 -6.36063554 0.07483101 0 0 Z " fill="#F4F4F4" transform="translate(657.25,245.75)"/>
<path d="M0 0 C8.58 0 17.16 0 26 0 C26 1.32 26 2.64 26 4 C24.02 4.33 22.04 4.66 20 5 C20.52374608 10.80529049 21.71846816 15.56123208 23.94140625 20.9296875 C24.22853989 21.64609406 24.51567352 22.36250061 24.81150818 23.10061646 C25.71962835 25.36244818 26.64030724 27.61887387 27.5625 29.875 C28.48609592 32.15334746 29.40696919 34.43273754 30.32420349 36.71365356 C30.89315513 38.12653729 31.46615362 39.53779955 32.04359436 40.94723511 C34 45.77817387 34 45.77817387 34 48 C34.66 48 35.32 48 36 48 C36.11480713 47.30253662 36.22961426 46.60507324 36.34790039 45.88647461 C37.07251131 42.67903359 38.17280466 39.8533552 39.43359375 36.81640625 C39.91763672 35.64142578 40.40167969 34.46644531 40.90039062 33.25585938 C41.41246807 32.02461795 41.92484033 30.79349911 42.4375 29.5625 C43.43794326 27.14785782 44.4367002 24.73251611 45.43359375 22.31640625 C45.87759521 21.24849854 46.32159668 20.18059082 46.77905273 19.08032227 C49.49467028 12.24705717 49.49467028 12.24705717 50 5 C47.525 4.505 47.525 4.505 45 4 C45 2.68 45 1.36 45 0 C51.27 0 57.54 0 64 0 C64 1.32 64 2.64 64 4 C63.236875 4.2475 62.47375 4.495 61.6875 4.75 C57.17996077 6.84652987 55.65666959 10.42174282 53.85522461 14.88867188 C53.46149155 15.85647583 53.06775848 16.82427979 52.66209412 17.82141113 C52.2463765 18.86003296 51.83065887 19.89865479 51.40234375 20.96875 C50.96741104 22.04120972 50.53247833 23.11366943 50.08436584 24.21862793 C48.69652097 27.64353498 47.31669393 31.07160121 45.9375 34.5 C44.55326695 37.92778487 43.16737723 41.35489001 41.77992249 44.78137207 C40.91739505 46.91288617 40.05699922 49.04526434 39.19895935 51.17858887 C38.80837845 52.14639282 38.41779755 53.11419678 38.01538086 54.11132812 C37.67357285 54.9608606 37.33176483 55.81039307 36.979599 56.68566895 C36.06744774 58.84065277 35.07244565 60.9208997 34 63 C33.01 63 32.02 63 31 63 C30.79003891 62.49238129 30.58007782 61.98476257 30.36375427 61.46176147 C28.14666778 56.10443482 25.92234734 50.7501514 23.6940918 45.39746094 C22.86709565 43.40829982 22.04185229 41.41840894 21.21850586 39.42773438 C18.5299576 32.92945602 15.80122996 26.45056884 13 20 C12.67010071 19.23739868 12.34020142 18.47479736 12.00030518 17.68908691 C11.12090425 15.68849401 10.21162859 13.70571048 9.28515625 11.7265625 C8.79023682 10.65229004 8.29531738 9.57801758 7.78540039 8.47119141 C5.53918145 5.36217621 3.67331447 4.84396061 0 4 C0 2.68 0 1.36 0 0 Z " fill="#F2F2F2" transform="translate(303,227)"/>
<path d="M0 0 C4.90409397 2.23695514 7.59288944 5.18577888 10 10 C10 12.64 10 15.28 10 18 C0.43 18 -9.14 18 -19 18 C-17.59352328 29.88385517 -17.59352328 29.88385517 -10.625 37.875 C-7.32486814 39.28934223 -5.57008511 39.56001335 -2 39 C0.12802254 37.77751897 2.09860561 36.45705729 4.0703125 34.99609375 C6 34 6 34 8.2421875 34.34765625 C8.82226562 34.56292969 9.40234375 34.77820313 10 35 C6.82521041 39.76218438 3.40047563 42.30219161 -2 44 C-8.92252044 45.10270237 -14.20282867 44.18001486 -20.125 40.42578125 C-24.25286348 37.28688507 -26.36227372 33.84407647 -28 29 C-28.83638411 21.40446526 -28.85236292 14.21045867 -24 8 C-16.71728615 0.44693018 -10.45543471 -1.04163733 0 0 Z " fill="#F1F1F1" transform="translate(392,246)"/>
<path d="M0 0 C0.33 2.31 0.66 4.62 1 7 C1.45890625 6.57847656 1.9178125 6.15695313 2.390625 5.72265625 C3.00421875 5.17480469 3.6178125 4.62695312 4.25 4.0625 C4.85328125 3.51722656 5.4565625 2.97195312 6.078125 2.41015625 C10.87692452 -1.11091413 17.31387418 -0.44779297 23 0 C26.68602033 1.30546553 27.62666992 2.35842535 29.58203125 5.71875 C32.00987845 11.6172422 31.57661436 18.16137256 31.6875 24.4375 C31.72166016 25.74138672 31.75582031 27.04527344 31.79101562 28.38867188 C31.87316153 31.59236198 31.9424241 34.79578979 32 38 C33.65 38.66 35.3 39.32 37 40 C37 40.99 37 41.98 37 43 C30.07 43 23.14 43 16 43 C16 42.01 16 41.02 16 40 C17.98 39.34 19.96 38.68 22 38 C22.08765069 33.97930575 22.14061018 29.9588599 22.1875 25.9375 C22.21263672 24.80376953 22.23777344 23.67003906 22.26367188 22.50195312 C22.31844835 16.23917559 22.20218154 11.46619367 19 6 C15.89046621 4.4452331 13.43733239 4.71355563 10 5 C5.99539195 7.11564199 3.62268837 8.76799877 2 13 C1.71000375 15.67476283 1.71000375 15.67476283 1.76953125 18.5703125 C1.77243164 20.16166016 1.77243164 20.16166016 1.77539062 21.78515625 C1.78763672 22.88730469 1.79988281 23.98945313 1.8125 25.125 C1.81314453 26.23488281 1.81378906 27.34476562 1.81445312 28.48828125 C1.59032269 33.91468022 1.59032269 33.91468022 3 39 C5.52733235 39.65555119 5.52733235 39.65555119 8 40 C8 40.99 8 41.98 8 43 C1.07 43 -5.86 43 -13 43 C-13 42.01 -13 41.02 -13 40 C-11.35 39.34 -9.7 38.68 -8 38 C-8 27.77 -8 17.54 -8 7 C-9.65 6.67 -11.3 6.34 -13 6 C-13 5.01 -13 4.02 -13 3 C-11.39743892 2.49487756 -9.79288208 1.99608373 -8.1875 1.5 C-7.29417969 1.2215625 -6.40085937 0.943125 -5.48046875 0.65625 C-3 0 -3 0 0 0 Z " fill="#F4F4F4" transform="translate(422,246)"/>
<path d="M0 0 C3.99108407 3.66748266 4.56503138 6.92979161 5.01953125 12.109375 C5 14 5 14 4 15 C1.92737924 15.08767112 -0.14820294 15.10695873 -2.22265625 15.09765625 C-3.48271484 15.09443359 -4.74277344 15.09121094 -6.04101562 15.08789062 C-7.38151109 15.07953403 -8.72200588 15.07106907 -10.0625 15.0625 C-11.40689942 15.0574866 -12.7513006 15.05292342 -14.09570312 15.04882812 C-17.39717941 15.03699488 -20.69856803 15.02050971 -24 15 C-23.74309819 17.06428157 -23.46886954 19.12641094 -23.1875 21.1875 C-23.03667969 22.33605469 -22.88585937 23.48460937 -22.73046875 24.66796875 C-21.70741584 29.33462188 -20.27230571 32.09121021 -16.375 34.875 C-11.97122259 36.3429258 -8.46049735 36.26147152 -4 35 C-1.19195735 32.9884805 -1.19195735 32.9884805 1 31 C1.99 31.33 2.98 31.66 4 32 C2.72168567 35.97697791 0.31875268 37.25108607 -3.1484375 39.16796875 C-8.47266193 41.56049998 -14.59815959 42.06307513 -20.1875 40.31640625 C-25.79039605 37.75902377 -29.3709848 34.32686202 -32.109375 28.734375 C-34.22236077 22.247138 -34.2584755 13.81031786 -31.5 7.5 C-28.73209346 2.90329806 -24.19248336 -0.92498009 -19.0859375 -2.64453125 C-12.43442294 -3.77802905 -5.6689064 -4.00971428 0 0 Z " fill="#F1F1F2" transform="translate(552,249)"/>
<path d="M0 0 C3.31241121 1.95486563 5.17777529 3.59374299 6.5 7.3125 C6.5 10.2825 6.5 13.2525 6.5 16.3125 C-3.07 16.3125 -12.64 16.3125 -22.5 16.3125 C-21.29402077 27.48086608 -21.29402077 27.48086608 -14.8125 35.875 C-10.41135481 37.78493093 -7.0741431 37.68474293 -2.5 36.3125 C-0.79705213 35.02582828 0.87946188 33.70153267 2.5 32.3125 C4.8125 32.5625 4.8125 32.5625 6.5 33.3125 C2.82789737 38.47639432 -0.26493582 40.93943532 -6.5 42.3125 C-13.75279946 43.49075262 -19.50118513 41.44141402 -25.5 37.3125 C-30.69021228 31.08424526 -31.97418185 25.25489479 -31.80859375 17.31640625 C-31.08306769 10.25400705 -27.72066441 5.97606812 -22.37890625 1.5390625 C-15.67188451 -2.83932591 -7.28606953 -3.32654191 0 0 Z " fill="#F1F2F2" transform="translate(840.5,247.6875)"/>
<path d="M0 0 C0 2.31 0 4.62 0 7 C0.62648438 6.57847656 1.25296875 6.15695313 1.8984375 5.72265625 C2.71570313 5.17480469 3.53296875 4.62695312 4.375 4.0625 C5.18710937 3.51722656 5.99921875 2.97195312 6.8359375 2.41015625 C11.71580968 -0.76968826 16.28983402 -0.43552113 22 0 C26.0128064 1.28983063 27.45698719 2.09785863 29.62646484 5.70214844 C31.10839161 9.26024775 31.40919686 11.80352195 31.4765625 15.640625 C31.5075 16.87554687 31.5384375 18.11046875 31.5703125 19.3828125 C31.58835937 20.65898437 31.60640625 21.93515625 31.625 23.25 C31.67583742 25.79695476 31.73033161 28.34384003 31.7890625 30.890625 C31.80662598 32.01500977 31.82418945 33.13939453 31.84228516 34.29785156 C31.81996592 36.96854678 31.81996592 36.96854678 33 39 C35.02463255 39.65213292 35.02463255 39.65213292 37 40 C37 40.99 37 41.98 37 43 C30.4 43 23.8 43 17 43 C17 42.01 17 41.02 17 40 C18.65 39.34 20.3 38.68 22 38 C22.0872253 33.60429206 22.14046869 29.20880729 22.1875 24.8125 C22.21263672 23.56662109 22.23777344 22.32074219 22.26367188 21.03710938 C22.27817383 19.2340332 22.27817383 19.2340332 22.29296875 17.39453125 C22.31653442 15.73707886 22.31653442 15.73707886 22.34057617 14.04614258 C21.92479553 10.32736474 20.66404356 7.66404356 18 5 C13.36089485 4.52822659 10.34754483 4.2535812 6.625 7.25 C2.79175819 11.26577713 1.74507299 13.81632219 1.76953125 19.3515625 C1.77243164 20.87523437 1.77243164 20.87523437 1.77539062 22.4296875 C1.78763672 23.48414063 1.79988281 24.53859375 1.8125 25.625 C1.8134668 27.21828125 1.8134668 27.21828125 1.81445312 28.84375 C1.61160649 34.08917189 1.61160649 34.08917189 3 39 C5.52733235 39.65555119 5.52733235 39.65555119 8 40 C8 40.99 8 41.98 8 43 C1.07 43 -5.86 43 -13 43 C-13 42.01 -13 41.02 -13 40 C-10.03 39.505 -10.03 39.505 -7 39 C-7 28.77 -7 18.54 -7 8 C-8.98 7.01 -10.96 6.02 -13 5 C-13 4.34 -13 3.68 -13 3 C-11.58603098 2.49242138 -10.16868271 1.99425075 -8.75 1.5 C-7.96109375 1.2215625 -7.1721875 0.943125 -6.359375 0.65625 C-4 0 -4 0 0 0 Z " fill="#F8F8F8" transform="translate(766,246)"/>
<path d="M0 0 C4.62 0 9.24 0 14 0 C14.03738281 2.01222656 14.07476562 4.02445313 14.11328125 6.09765625 C14.16199296 8.06700119 14.21080823 10.03634498 14.26245117 12.00561523 C14.29550934 13.36422543 14.32359961 14.72296666 14.34643555 16.08178711 C14.29549885 26.51471458 14.29549885 26.51471458 18 36 C21.80099676 37.26699892 23.92888869 37.39855305 27.6875 36 C31.44517927 32.75011523 33.64077633 29.31126038 34.40161133 24.41601562 C34.57183446 21.51692652 34.59506102 18.65367661 34.5625 15.75 C34.58634766 14.75742187 34.61019531 13.76484375 34.63476562 12.7421875 C34.62930689 10.05648789 34.57189574 7.62474975 34 5 C31.62865445 2.8722941 31.62865445 2.8722941 29 2 C29 1.34 29 0.68 29 0 C33.62 0 38.24 0 43 0 C43.33 12.21 43.66 24.42 44 37 C45.98 37.66 47.96 38.32 50 39 C50 39.99 50 40.98 50 42 C43.565 42.495 43.565 42.495 37 43 C36.34 40.36 35.68 37.72 35 35 C34.29423828 35.61488281 34.29423828 35.61488281 33.57421875 36.2421875 C32.95160156 36.78101563 32.32898438 37.31984375 31.6875 37.875 C31.07261719 38.40867187 30.45773437 38.94234375 29.82421875 39.4921875 C25.74174659 42.86656492 23.40433722 43.38318194 18.28515625 43.25 C14.95619144 42.88580556 12.74612536 41.89613418 10 40 C6.64052517 35.36624161 5.86882532 31.43711316 5.68359375 25.80078125 C5.62075195 23.98803711 5.62075195 23.98803711 5.55664062 22.13867188 C5.51732422 20.87603516 5.47800781 19.61339844 5.4375 18.3125 C5.39431641 17.03826172 5.35113281 15.76402344 5.30664062 14.45117188 C5.2004514 11.30089148 5.09840467 8.15053161 5 5 C2.525 4.01 2.525 4.01 0 3 C0 2.01 0 1.02 0 0 Z " fill="#F6F6F6" transform="translate(463,247)"/>
<path d="M0 0 C11 0 11 0 13.65429688 1.39648438 C15.73381744 5.41970777 15.571116 9.18867938 15.53125 13.65625 C15.5350769 14.59553345 15.53890381 15.53481689 15.54284668 16.50256348 C15.54556576 18.48625766 15.53820484 20.4699877 15.52148438 22.45361328 C15.50007461 25.48942016 15.52128607 28.52286046 15.546875 31.55859375 C15.54423172 33.48698439 15.53910675 35.41537356 15.53125 37.34375 C15.53934692 38.25112915 15.54744385 39.1585083 15.55578613 40.09338379 C15.50133568 43.75408944 15.34899868 46.32479646 13.65429688 49.60351562 C11 51 11 51 0 51 C0 34.17 0 17.34 0 0 Z " fill="#FEFBFB" transform="translate(493,450)"/>
<path d="M0 0 C2.944955 1.70001843 5.4236544 3.79496806 8 6 C8.99 6.66 9.98 7.32 11 8 C11.55429688 7.57847656 12.10859375 7.15695313 12.6796875 6.72265625 C13.40414062 6.17480469 14.12859375 5.62695312 14.875 5.0625 C15.59429687 4.51722656 16.31359375 3.97195312 17.0546875 3.41015625 C20.77541612 0.71300157 23.40211421 0.52435664 28 1 C30.4375 3 30.4375 3 32 6 C32.53504397 11.52878774 31.74462179 15.76613462 30 21 C30.59167969 21.18175781 31.18335938 21.36351563 31.79296875 21.55078125 C42.67494824 25.01242236 42.67494824 25.01242236 46 30 C45.92641122 34.04738292 45.70897065 36.22657748 42.9375 39.25 C39.37696723 41.37116846 35.92429923 42.66972908 32 44 C32.05220703 45.32064453 32.05220703 45.32064453 32.10546875 46.66796875 C32.13253906 47.82941406 32.15960938 48.99085937 32.1875 50.1875 C32.23970703 51.91033203 32.23970703 51.91033203 32.29296875 53.66796875 C31.9490805 57.57912447 30.7940149 60.2059851 28 63 C20.17572865 63.78242713 16.02956857 60.58457392 10 56 C9.45730469 56.49371094 8.91460937 56.98742187 8.35546875 57.49609375 C7.64003906 58.13675781 6.92460938 58.77742188 6.1875 59.4375 C5.47980469 60.07558594 4.77210937 60.71367188 4.04296875 61.37109375 C0.25751107 64.38932674 -3.30784205 64.33515414 -8 64 C-10.61593153 62.16884793 -10.96989455 61.09031634 -12 58 C-12.26086957 49.7826087 -12.26086957 49.7826087 -11 46 C-10.34 46 -9.68 46 -9 46 C-8.93941406 46.99902344 -8.87882812 47.99804688 -8.81640625 49.02734375 C-8.69072266 50.96287109 -8.69072266 50.96287109 -8.5625 52.9375 C-8.48128906 54.22527344 -8.40007813 55.51304688 -8.31640625 56.83984375 C-8.35080812 59.86023957 -8.35080812 59.86023957 -7 61 C-0.78257655 60.75130306 2.29031292 58.74852645 7 55 C6.45276317 51.62537285 5.9451 49.91765 4 47 C6.96175123 47.61277612 8.38058783 48.25372522 11 50 C11.45375 49.505 11.9075 49.01 12.375 48.5 C14 47 14 47 16 47 C15.67 47.763125 15.34 48.52625 15 49.3125 C13.82563314 51.99069135 13.82563314 51.99069135 14 55 C18.89236156 59.15850733 21.12892041 59.14111505 28 60 C28.33 54.06 28.66 48.12 29 42 C33.19921875 40.14453125 33.19921875 40.14453125 37.3984375 38.2890625 C40.08022479 37.13287556 40.08022479 37.13287556 42 35 C42.66743877 32.58655333 42.66743877 32.58655333 42 30 C35.57123679 24.64269733 27.99363026 23.4849827 20 22 C20 21.34 20 20.68 20 20 C22.64 20 25.28 20 28 20 C28 14.72 28 9.44 28 4 C21.78376013 4 20.64096942 4.41379635 16 8 C15.34 8.66 14.68 9.32 14 10 C14.32041397 12.60280568 14.32041397 12.60280568 15 15 C14.01 15.33 13.02 15.66 12 16 C11.34 15.34 10.68 14.68 10 14 C8.02 14.99 8.02 14.99 6 16 C6.33 13.69 6.66 11.38 7 9 C5.61447798 7.98576166 4.21605712 6.98912998 2.8125 6 C2.03519531 5.443125 1.25789063 4.88625 0.45703125 4.3125 C-2.29977136 2.83986776 -3.92056292 2.65961317 -7 3 C-8.32783188 4.10327299 -8.32783188 4.10327299 -8.1328125 6.87109375 C-8.12894531 8.63646484 -8.12894531 8.63646484 -8.125 10.4375 C-8.12757812 11.61183594 -8.13015625 12.78617188 -8.1328125 13.99609375 C-8.20765546 16.9240809 -8.20765546 16.9240809 -7 19 C-4.67843403 19.40729228 -2.3431213 19.74438677 0 20 C0 20.66 0 21.32 0 22 C-1.62808594 22.36351562 -1.62808594 22.36351562 -3.2890625 22.734375 C-4.73452507 23.07227534 -6.17982939 23.41085313 -7.625 23.75 C-8.33785156 23.90726563 -9.05070312 24.06453125 -9.78515625 24.2265625 C-14.60965005 25.37735919 -18.14947209 26.82331447 -22 30 C-22.50169415 33.16926564 -22.50169415 33.16926564 -22 36 C-21.46890625 36.26554687 -20.9378125 36.53109375 -20.390625 36.8046875 C-16.92708333 38.53645833 -13.46354167 40.26822917 -10 42 C-10 42.66 -10 43.32 -10 44 C-15.5770903 43.58171823 -19.65514618 41.38585455 -24 38 C-26 35 -26 35 -26.25 31.6875 C-24.57544104 26.74755107 -22.06132013 25.63912235 -17.640625 23.1640625 C-15.07075041 22.03118879 -12.76691478 21.42797603 -10 21 C-10.495 19.824375 -10.495 19.824375 -11 18.625 C-12.41721295 13.48760307 -13.12010336 7.81990933 -11.109375 2.7578125 C-8.66802347 -1.11052619 -4.09657577 -0.78200833 0 0 Z " fill="#097092" transform="translate(70,40)"/>
<path d="M0 0 C0.66 0.33 1.32 0.66 2 1 C2 1.99 2 2.98 2 4 C5.3 4 8.6 4 12 4 C12.33 2.68 12.66 1.36 13 0 C14 1 14 1 14.0625 3.5625 C14.041875 4.366875 14.02125 5.17125 14 6 C13.34 6 12.68 6 12 6 C12 7.98 12 9.96 12 12 C14.97 12 17.94 12 21 12 C21 11.34 21 10.68 21 10 C19.35 10 17.7 10 16 10 C16 9.67 16 9.34 16 9 C17.98 9 19.96 9 22 9 C23 14 23 14 23 26 C12.44 26 1.88 26 -9 26 C-9.33 21.38 -9.66 16.76 -10 12 C-9.34 12 -8.68 12 -8 12 C-8.33 10.35 -8.66 8.7 -9 7 C-6.36 7 -3.72 7 -1 7 C-1 6.34 -1 5.68 -1 5 C-0.34 5 0.32 5 1 5 C0.67 3.35 0.34 1.7 0 0 Z " fill="#0C5068" transform="translate(73,58)"/>
<path d="M0 0 C0.66 0.66 1.32 1.32 2 2 C1.67 3.98 1.34 5.96 1 8 C-3.29 8 -7.58 8 -12 8 C-18.3783596 17.5675394 -17.52348821 26.93426464 -17 38 C-15.35 38.66 -13.7 39.32 -12 40 C-12 40.99 -12 41.98 -12 43 C-18.93 43 -25.86 43 -33 43 C-33 42.01 -33 41.02 -33 40 C-30.03 39.505 -30.03 39.505 -27 39 C-27 29.1 -27 19.2 -27 9 C-28.98 8.34 -30.96 7.68 -33 7 C-33 5.68 -33 4.36 -33 3 C-23.58997722 0.70387244 -23.58997722 0.70387244 -19 1 C-18.34 3.31 -17.68 5.62 -17 8 C-16.2575 7.236875 -15.515 6.47375 -14.75 5.6875 C-13.8425 4.800625 -12.935 3.91375 -12 3 C-11.401875 2.401875 -10.80375 1.80375 -10.1875 1.1875 C-6.71418516 -0.69801377 -3.92033897 -0.31615637 0 0 Z " fill="#F7F7F7" transform="translate(887,246)"/>
<path d="M0 0 C2 2 2 2 2.1875 4.5625 C2 7 2 7 1 8 C-0.93843348 7.91495526 -2.87588085 7.80692875 -4.8125 7.6875 C-8.04376333 7.58185606 -8.04376333 7.58185606 -11 8 C-15.25423125 12.35316686 -16.13548983 16.86358659 -16.09765625 22.765625 C-16.09443359 23.65507812 -16.09121094 24.54453125 -16.08789062 25.4609375 C-16.07951172 26.38132812 -16.07113281 27.30171875 -16.0625 28.25 C-16.05798828 29.18585938 -16.05347656 30.12171875 -16.04882812 31.0859375 C-16.03706918 33.39069041 -16.02063426 35.69531227 -16 38 C-14.35 38.66 -12.7 39.32 -11 40 C-11 40.99 -11 41.98 -11 43 C-17.93 43 -24.86 43 -32 43 C-32 42.01 -32 41.02 -32 40 C-31.195625 39.690625 -30.39125 39.38125 -29.5625 39.0625 C-27.10919595 38.23664655 -27.10919595 38.23664655 -26 37 C-25.90014358 35.02416172 -25.86919206 33.04476522 -25.8671875 31.06640625 C-25.86589844 29.86048828 -25.86460937 28.65457031 -25.86328125 27.41210938 C-25.86714844 26.14173828 -25.87101563 24.87136719 -25.875 23.5625 C-25.86919922 21.66274414 -25.86919922 21.66274414 -25.86328125 19.72460938 C-25.86521484 17.91379883 -25.86521484 17.91379883 -25.8671875 16.06640625 C-25.86831543 14.95209229 -25.86944336 13.83777832 -25.87060547 12.68969727 C-25.81719784 10.02917261 -25.81719784 10.02917261 -27 8 C-29.52733235 7.34444881 -29.52733235 7.34444881 -32 7 C-32 5.68 -32 4.36 -32 3 C-22.58997722 0.70387244 -22.58997722 0.70387244 -18 1 C-18 3.97 -18 6.94 -18 10 C-17.34 10 -16.68 10 -16 10 C-15.814375 9.278125 -15.62875 8.55625 -15.4375 7.8125 C-12.2220149 1.5213335 -6.99413958 -0.95997994 0 0 Z " fill="#F5F5F6" transform="translate(717,246)"/>
<path d="M0 0 C4.85075719 0.05184895 8.30488239 0.26997665 12.3125 3.25 C15.26410979 6.69354475 15.79819093 9.73846328 15.59375 14.26171875 C14.95725961 18.7613522 13.09738808 21.46511192 9.9375 24.625 C4.45992832 27.08046317 -0.78627704 26.51094534 -6.6875 26.25 C-6.71636751 22.10418113 -6.73425327 17.95838784 -6.75 13.8125 C-6.75837891 12.62849609 -6.76675781 11.44449219 -6.77539062 10.22460938 C-6.77861328 9.09990234 -6.78183594 7.97519531 -6.78515625 6.81640625 C-6.79039307 5.77427979 -6.79562988 4.73215332 -6.80102539 3.65844727 C-6.58643374 -0.89412616 -3.98495507 0.05881852 0 0 Z " fill="#191C22" transform="translate(610.6875,230.75)"/>
<path d="M0 0 C0.99 0 1.98 0 3 0 C3 3.3 3 6.6 3 10 C6.3 10 9.6 10 13 10 C13 11.32 13 12.64 13 14 C9.7 14 6.4 14 3 14 C3.0934535 18.3786383 3.19952754 22.75673196 3.31738281 27.13476562 C3.35569998 28.62458889 3.39054808 30.11450554 3.421875 31.60449219 C3.46746729 33.74448048 3.52546874 35.88382436 3.5859375 38.0234375 C3.6173584 39.31169434 3.6487793 40.59995117 3.68115234 41.92724609 C3.68458268 45.10481505 3.68458268 45.10481505 6 47 C8.5 47.33333333 8.5 47.33333333 11 47 C11.66 46.34 12.32 45.68 13 45 C13.99 45 14.98 45 16 45 C15.70488433 47.85278483 15.18767059 48.83578823 13 50.75 C8.9206739 52.44971921 5.35933999 52.73445402 1 52 C-1.87029869 50.20606332 -3.49131638 49.01736724 -5 46 C-5.08639869 43.59161322 -5.11567764 41.21266119 -5.09765625 38.8046875 C-5.0962413 38.09724396 -5.09482635 37.38980042 -5.09336853 36.66091919 C-5.087766 34.39890331 -5.07521318 32.13698602 -5.0625 29.875 C-5.05748532 28.34244935 -5.05292236 26.80989714 -5.04882812 25.27734375 C-5.03779577 21.51819112 -5.02052952 17.75911228 -5 14 C-6.65 14 -8.3 14 -10 14 C-10 12.68 -10 11.36 -10 10 C-8.57421875 8.69140625 -8.57421875 8.69140625 -6.6875 7.5625 C-3.40111183 5.43329076 -1.95201322 3.41602314 0 0 Z " fill="#F2F2F3" transform="translate(733,238)"/>
<path d="M0 0 C2.97 0 5.94 0 9 0 C12.20701601 3.20701601 12.35826022 3.96861502 12.44248962 8.2686615 C12.43808617 9.30936546 12.43808617 9.30936546 12.43359375 10.37109375 C12.4388356 11.0898317 12.44407745 11.80856964 12.44947815 12.54908752 C12.45589606 14.06794952 12.45456425 15.58686123 12.44604492 17.10571289 C12.43754142 19.42619686 12.466283 21.74421286 12.49804688 24.06445312 C12.49965924 25.54166593 12.49908069 27.01888308 12.49609375 28.49609375 C12.51294472 29.53376137 12.51294472 29.53376137 12.53013611 30.59239197 C12.48457556 33.75265062 12.14463758 35.76674855 10.46899414 38.46899414 C8 40 8 40 0 40 C0 26.8 0 13.6 0 0 Z " fill="#CF3326" transform="translate(385,438)"/>
<path d="M0 0 C2.64 0 5.28 0 8 0 C9.65 5.28 11.3 10.56 13 16 C16.21261209 8.07826144 16.21261209 8.07826144 19 0 C21.64 0 24.28 0 27 0 C27 8.25 27 16.5 27 25 C25.35 25 23.7 25 22 25 C21.67 20.05 21.34 15.1 21 10 C19.35 14.95 17.7 19.9 16 25 C14.35 25 12.7 25 11 25 C8.08437333 20.62655999 7.31567041 16.08327203 6 11 C5.67 15.62 5.34 20.24 5 25 C3.35 25 1.7 25 0 25 C0 16.75 0 8.5 0 0 Z " fill="#F2F2F2" transform="translate(128,79)"/>
<path d="M0 0 C12.14953271 -0.48598131 12.14953271 -0.48598131 15.40625 1.375 C17.91333052 5.50430909 17.42205131 9.52520638 17.25 14.25 C17.23195313 15.18585938 17.21390625 16.12171875 17.1953125 17.0859375 C17.14826909 19.39106438 17.07652778 21.69566354 17 24 C11.39 24 5.78 24 0 24 C0 16.08 0 8.16 0 0 Z " fill="#FDF6F6" transform="translate(669,449)"/>
<path d="M0 0 C1.65 0 3.3 0 5 0 C5.33 2.97 5.66 5.94 6 9 C6.33 8.67 6.66 8.34 7 8 C13.35779817 7.52905199 13.35779817 7.52905199 15.875 9.375 C18.43032714 13.06602809 18.49391138 16.63013996 18 21 C16.84367254 23.36293002 15.85016245 25.14983755 14 27 C11.66706666 27.04320247 9.3329866 27.04022391 7 27 C6.01 27 5.02 27 4 27 C2.68 27 1.36 27 0 27 C0 18.09 0 9.18 0 0 Z " fill="#F5F5F5" transform="translate(218,77)"/>
<path d="M0 0 C2.475 0.495 2.475 0.495 5 1 C5.66 0.67 6.32 0.34 7 0 C10.67329964 -0.13357453 13.49852959 -0.1671568 17 1 C17.33 0.67 17.66 0.34 18 0 C25.19286762 -0.46405598 25.19286762 -0.46405598 27.74609375 1.00390625 C29.7460538 4.18764327 29.31121262 7.55542423 29.1875 11.1875 C29.16719727 12.31188477 29.16719727 12.31188477 29.14648438 13.45898438 C29.11118539 15.30629767 29.05737917 17.15324066 29 19 C27.02 19 25.04 19 23 19 C23 14.05 23 9.1 23 4 C21.35 4 19.7 4 18 4 C17.67 8.95 17.34 13.9 17 19 C15.35 19 13.7 19 12 19 C11.67 14.05 11.34 9.1 11 4 C9.35 4.66 7.7 5.32 6 6 C5.67 10.29 5.34 14.58 5 19 C3.35 19 1.7 19 0 19 C0 12.73 0 6.46 0 0 Z " fill="#F2F3F3" transform="translate(184,85)"/>
<path d="M0 0 C3.63 0 7.26 0 11 0 C14.38082377 3.38082377 14.38082377 3.38082377 14.3984375 7.125 C14.40230469 7.91390625 14.40617188 8.7028125 14.41015625 9.515625 C14.39855469 10.33546875 14.38695312 11.1553125 14.375 12 C14.38660156 12.81984375 14.39820313 13.6396875 14.41015625 14.484375 C14.40628906 15.27328125 14.40242187 16.0621875 14.3984375 16.875 C14.39336182 17.95394531 14.39336182 17.95394531 14.38818359 19.0546875 C14 21 14 21 11 24 C7.37 24 3.74 24 0 24 C0 16.08 0 8.16 0 0 Z " fill="#FEFDFC" transform="translate(555,449)"/>
<path d="M0 0 C3.80703755 2.02501998 4.7651981 3.25415866 6.0625 7.375 C5.96304752 13.14324397 3.1114791 15.83799912 -0.75 19.875 C-1.4925 20.57625 -2.235 21.2775 -3 22 C-7.53219873 19.98459709 -10.28317125 17.11263067 -13 13 C-14.125 9.375 -14.125 9.375 -14 6 C-10.33926195 0.19331206 -6.70934907 -0.89972114 0 0 Z " fill="#2A2C33" transform="translate(808,97)"/>
<path d="M0 0 C11 0 11 0 14.1875 1 C16.32112039 3.35433974 16.27976916 4.10534567 16.3125 7.1875 C16.209375 8.445625 16.10625 9.70375 16 11 C14.02 11.99 14.02 11.99 12 13 C13.98 16.96 15.96 20.92 18 25 C16.68 25 15.36 25 14 25 C13.69707031 24.36191406 13.39414063 23.72382812 13.08203125 23.06640625 C12.66308594 22.24011719 12.24414062 21.41382812 11.8125 20.5625 C11.40644531 19.73878906 11.00039062 18.91507813 10.58203125 18.06640625 C9.13366813 15.75309288 9.13366813 15.75309288 6.32421875 15.21484375 C5.55722656 15.14394531 4.79023438 15.07304688 4 15 C4 18.3 4 21.6 4 25 C2.68 25 1.36 25 0 25 C0 16.75 0 8.5 0 0 Z " fill="#DDDEDF" transform="translate(128,39)"/>
<path d="M0 0 C2.64 0 5.28 0 8 0 C8.33 1.98 8.66 3.96 9 6 C12.63 6 16.26 6 20 6 C19.67 7.32 19.34 8.64 19 10 C19 10.33 19 10.66 19 11 C19 13.31 19 15.62 19 18 C12.73 18 6.46 18 0 18 C-0.33 13.71 -0.66 9.42 -1 5 C-0.34 5 0.32 5 1 5 C0.67 3.35 0.34 1.7 0 0 Z " fill="#0F3546" transform="translate(64,65)"/>
<path d="M0 0 C1.65 0 3.3 0 5 0 C6.98 3.96 8.96 7.92 11 12 C12.65 8.04 14.3 4.08 16 0 C17.65 0 19.3 0 21 0 C21 6.27 21 12.54 21 19 C19.68 19 18.36 19 17 19 C16.67 16.03 16.34 13.06 16 10 C14.68 12.97 13.36 15.94 12 19 C10.68 18.67 9.36 18.34 8 18 C6.55036313 15.44149911 5.89599095 12.8223715 5 10 C4.67 12.97 4.34 15.94 4 19 C2.68 19 1.36 19 0 19 C0 12.73 0 6.46 0 0 Z " fill="#F2F2F3" transform="translate(1044,36)"/>
<path d="M0 0 C1.46566406 -0.03867188 1.46566406 -0.03867188 2.9609375 -0.078125 C5.625 0.25 5.625 0.25 7.46484375 1.25390625 C9.33154632 4.4656403 8.93515372 7.83651244 8.8125 11.4375 C8.79219727 12.56188477 8.79219727 12.56188477 8.77148438 13.70898438 C8.73618539 15.55629767 8.68237917 17.40324066 8.625 19.25 C7.305 19.25 5.985 19.25 4.625 19.25 C4.625 18.59 4.625 17.93 4.625 17.25 C3.635 17.91 2.645 18.57 1.625 19.25 C-1.18090236 19.67783066 -3.4983315 19.47830702 -6.375 19.25 C-8.66513653 15.8147952 -8.55342973 14.264669 -8.375 10.25 C-4.14550005 7.83314288 -1.25164009 6.90166856 3.625 7.25 C3.295 6.59 2.965 5.93 2.625 5.25 C0.72966658 4.78476937 0.72966658 4.78476937 -1.4375 4.625 C-2.736875 4.50125 -4.03625 4.3775 -5.375 4.25 C-5.705 3.26 -6.035 2.27 -6.375 1.25 C-4.64280072 -0.48219928 -2.35473192 0.03708239 0 0 Z " fill="#F1F1F2" transform="translate(247.375,84.75)"/>
<path d="M0 0 C2.54803123 2.2932281 2.95649579 3.58235957 3.3125 7 C3.01034403 9.90069733 2.60493878 11.59259183 1 14 C-1.73905345 15.36952673 -3.97087332 15.12621361 -7 15 C-7.66 14.67 -8.32 14.34 -9 14 C-9 16.64 -9 19.28 -9 22 C-10.32 22 -11.64 22 -13 22 C-13 14.74 -13 7.48 -13 0 C-4.23703704 -1.25185185 -4.23703704 -1.25185185 0 0 Z " fill="#F3F3F4" transform="translate(1146,40)"/>
<path d="M0 0 C1.32 0 2.64 0 4 0 C4.33 1.98 4.66 3.96 5 6 C6.0725 5.7525 7.145 5.505 8.25 5.25 C12 5 12 5 14.4375 6.4375 C16.60849319 9.99792883 16.81697796 12.93178321 16 17 C14.375 19.5 14.375 19.5 12 21 C8.875 21.25 8.875 21.25 6 21 C5.34 21 4.68 21 4 21 C2.68 21 1.36 21 0 21 C0 14.07 0 7.14 0 0 Z " fill="#F3F3F3" transform="translate(941,34)"/>
<path d="M0 0 C1.65 -0.33 3.3 -0.66 5 -1 C5 4.28 5 9.56 5 15 C-6.625 15.25 -6.625 15.25 -10 13 C-11.19754817 9.40735548 -11.33094958 6.77282526 -11 3 C-7.93240084 -1.90815865 -5.26428624 -1.01591489 0 0 Z " fill="#EFEFF0" transform="translate(1000,40)"/>
<path d="M0 0 C0.62334158 9.73105464 0.62334158 9.73105464 -1.75 14.5625 C-5.1497006 18.24550898 -5.1497006 18.24550898 -8 19 C-11.125 18.8125 -11.125 18.8125 -14 18 C-16 15 -16 15 -16.125 11.6875 C-14.35406766 5.88277733 -10.02654017 3.70421 -4.92578125 0.83203125 C-3 0 -3 0 0 0 Z " fill="#171A21" transform="translate(665,266)"/>
<path d="M0 0 C1.65 0 3.3 0 5 0 C5.33 4.62 5.66 9.24 6 14 C7.65 13.67 9.3 13.34 11 13 C11.33 8.71 11.66 4.42 12 0 C13.65 0 15.3 0 17 0 C17 6.27 17 12.54 17 19 C15.68 19 14.36 19 13 19 C13 18.34 13 17.68 13 17 C12.01 17.66 11.02 18.32 10 19 C3.91955751 19.54289665 3.91955751 19.54289665 1.29296875 17.9921875 C-0.76381132 14.8231306 -0.31162115 11.45656959 -0.1875 7.8125 C-0.17396484 7.06291016 -0.16042969 6.31332031 -0.14648438 5.54101562 C-0.11118539 3.69370233 -0.05737917 1.84675934 0 0 Z " fill="#F9F9F9" transform="translate(161,85)"/>
<path d="M0 0 C0.99 0.66 1.98 1.32 3 2 C3.2208564 4.95064148 3.28060989 7.68368231 3.1875 10.625 C3.17396484 11.42679688 3.16042969 12.22859375 3.14648438 13.0546875 C3.11109051 15.03674378 3.05728234 17.01845551 3 19 C2.34 19 1.68 19 1 19 C1 18.34 1 17.68 1 17 C0.01 17.66 -0.98 18.32 -2 19 C-4.80590236 19.42783066 -7.1233315 19.22830702 -10 19 C-12.14201526 15.78697711 -12.65325876 14.73290719 -12 11 C-8.21669117 7.67527405 -4.88424492 7.71269148 0 8 C-0.33 6.68 -0.66 5.36 -1 4 C-3.64 4 -6.28 4 -9 4 C-9.33 3.01 -9.66 2.02 -10 1 C-6.87293041 -0.5635348 -3.42017557 -0.39958487 0 0 Z " fill="#E9E9EA" transform="translate(180,45)"/>
<path d="M0 0 C4.4480437 0.78035854 5.91226997 2.01104996 8.5625 5.625 C8.5625 7.275 8.5625 8.925 8.5625 10.625 C4.2725 10.625 -0.0175 10.625 -4.4375 10.625 C-3.4475 12.605 -2.4575 14.585 -1.4375 16.625 C1.5325 16.625 4.5025 16.625 7.5625 16.625 C7.2325 17.615 6.9025 18.605 6.5625 19.625 C-2.39525891 20.39427319 -2.39525891 20.39427319 -6.0625 17.6875 C-7.92780604 13.53295473 -8.22325187 10.10459571 -7.4375 5.625 C-5.40276675 1.63692284 -4.41929386 0.80350797 0 0 Z " fill="#F0F1F1" transform="translate(156.4375,44.375)"/>
<path d="M0 0 C1.9375 1.25 1.9375 1.25 3 3 C3 4.65 3 6.3 3 8 C-0.63 8 -4.26 8 -8 8 C-7.67 8.99 -7.34 9.98 -7 11 C-3.7 10.67 -0.4 10.34 3 10 C1 14 1 14 -1 15 C-4.79877599 15.35173852 -7.14360153 15.52701444 -10.4375 13.5 C-12.33148168 10.46962931 -12.64334247 8.44169066 -12.4453125 4.91015625 C-12 3 -12 3 -9.9375 0.4375 C-6.10852228 -1.43625505 -4.06665724 -1.12962701 0 0 Z " fill="#EDEDEE" transform="translate(935,40)"/>
<path d="M0 0 C3.8125 1 3.8125 1 5.8125 4 C5.8125 5.65 5.8125 7.3 5.8125 9 C2.1825 9 -1.4475 9 -5.1875 9 C-4.1975 10.485 -4.1975 10.485 -3.1875 12 C1.2675 11.505 1.2675 11.505 5.8125 11 C3.8125 15 3.8125 15 1.8125 16 C-1.5625 16.375 -1.5625 16.375 -5.1875 16 C-8.1111459 13.4511805 -9.03659176 11.80484394 -9.75 8 C-8.70835531 2.44456166 -5.67725685 -0.50671327 0 0 Z " fill="#EEEEEF" transform="translate(1094.1875,39)"/>
<path d="M0 0 C2.875 1.6875 2.875 1.6875 5 4 C5 5.65 5 7.3 5 9 C1.37 9 -2.26 9 -6 9 C-6 9.99 -6 10.98 -6 12 C-0.555 11.505 -0.555 11.505 5 11 C3 15 3 15 1 16 C-2.375 16.375 -2.375 16.375 -6 16 C-9.22456813 13.27151928 -9.91290117 11.62057913 -10.5 7.4375 C-10 4 -10 4 -8.375 1.5625 C-5.26456309 -0.48384007 -3.66322334 -0.59807728 0 0 Z " fill="#EEEFF0" transform="translate(1078,39)"/>
<path d="M0 0 C3.63744123 0.74945503 5.18606542 2.433395 7.19921875 5.453125 C6.86921875 7.103125 6.53921875 8.753125 6.19921875 10.453125 C-0.07078125 10.453125 -6.34078125 10.453125 -12.80078125 10.453125 C-10.17558934 2.57754926 -8.37039605 -0.38739023 0 0 Z " fill="#191C23" transform="translate(831.80078125,249.546875)"/>
<path d="M0 0 C2.5625 1.6875 2.5625 1.6875 4 4 C4.3125 6.6875 4.3125 6.6875 4 9 C3 10 3 10 1.23413086 10.11352539 C0.48526611 10.10828857 -0.26359863 10.10305176 -1.03515625 10.09765625 C-1.84404297 10.09443359 -2.65292969 10.09121094 -3.48632812 10.08789062 C-4.33646484 10.07951172 -5.18660156 10.07113281 -6.0625 10.0625 C-6.91650391 10.05798828 -7.77050781 10.05347656 -8.65039062 10.04882812 C-10.76695663 10.03700373 -12.88348685 10.01906769 -15 10 C-14.25 4.296875 -14.25 4.296875 -12 1.625 C-7.93097528 -0.57905506 -4.53580137 -0.83776928 0 0 Z " fill="#171A21" transform="translate(544,250)"/>
<path d="M0 0 C2.09375 0.41796875 2.09375 0.41796875 4.65625 2.04296875 C6.09375 4.41796875 6.09375 4.41796875 6.09375 10.41796875 C-0.17625 10.41796875 -6.44625 10.41796875 -12.90625 10.41796875 C-11.32860988 2.52976813 -7.92446953 -0.48867562 0 0 Z " fill="#171A21" transform="translate(386.90625,249.58203125)"/>
<path d="M0 0 C2.875 0.875 2.875 0.875 4.875 2.875 C5.17578125 4.93359375 5.17578125 4.93359375 5.1875 7.3125 C5.20425781 8.09496094 5.22101562 8.87742187 5.23828125 9.68359375 C4.78972661 12.38939111 4.05713746 13.25500568 1.875 14.875 C-1.21315875 15.26101984 -3.22684376 15.35401666 -6 13.875 C-7.81219102 10.65332708 -7.75860845 7.42035963 -7.125 3.875 C-4.95085526 0.44654098 -4.08370138 -0.16334806 0 0 Z " fill="#1F2229" transform="translate(925.125,100.125)"/>
<path d="M0 0 C1.32 0 2.64 0 4 0 C4.33 3.63 4.66 7.26 5 11 C6.32 11.33 7.64 11.66 9 12 C10.73956658 10.26043342 10.37190386 7.8063378 10.5625 5.4375 C10.64628906 4.42558594 10.73007812 3.41367187 10.81640625 2.37109375 C10.87699219 1.58863281 10.93757812 0.80617187 11 0 C12.32 0 13.64 0 15 0 C15 5.28 15 10.56 15 16 C13.081875 16.0825 11.16375 16.165 9.1875 16.25 C7.56908203 16.31960937 7.56908203 16.31960937 5.91796875 16.390625 C3 16 3 16 1.125 14.375 C-0.31383902 11.33745096 -0.29665529 9.09742891 -0.1875 5.75 C-0.14689453 4.13351563 -0.14689453 4.13351563 -0.10546875 2.484375 C-0.07066406 1.66453125 -0.03585937 0.8446875 0 0 Z " fill="#EFEFF0" transform="translate(971,39)"/>
<path d="M0 0 C1.32 0 2.64 0 4 0 C4.33 3.63 4.66 7.26 5 11 C7.475 11.99 7.475 11.99 10 13 C10.33 8.71 10.66 4.42 11 0 C12.32 0 13.64 0 15 0 C15 5.28 15 10.56 15 16 C13.081875 16.0825 11.16375 16.165 9.1875 16.25 C7.56908203 16.31960937 7.56908203 16.31960937 5.91796875 16.390625 C3 16 3 16 1.125 14.375 C-0.31383902 11.33745096 -0.29665529 9.09742891 -0.1875 5.75 C-0.14689453 4.13351563 -0.14689453 4.13351563 -0.10546875 2.484375 C-0.07066406 1.66453125 -0.03585937 0.8446875 0 0 Z " fill="#EDEDEE" transform="translate(1114,39)"/>
<path d="M0 0 C1.32 0 2.64 0 4 0 C1.54234965 7.91909556 -1.66818573 15.41985296 -5 23 C-6.32 23 -7.64 23 -9 23 C-8.88140625 22.39414062 -8.7628125 21.78828125 -8.640625 21.1640625 C-7.67128675 14.86336387 -8.39743558 10.79939225 -11.08984375 5.03125 C-12 3 -12 3 -12 1 C-9.6875 1.0625 -9.6875 1.0625 -7 2 C-5.1875 5.5625 -5.1875 5.5625 -4 9 C-2.68 6.03 -1.36 3.06 0 0 Z " fill="#ECECED" transform="translate(1031,39)"/>
<path d="M0 0 C6.0546875 -0.1953125 6.0546875 -0.1953125 8 0 C8.66 0.66 9.32 1.32 10 2 C9.71395102 3.67542976 9.38218767 5.34385343 9 7 C9.33 7.33 9.66 7.66 10 8 C10.125 11 10.125 11 10 14 C9 15 9 15 6.93359375 15.09765625 C3.46679688 15.04882812 3.46679688 15.04882812 0 15 C0 10.05 0 5.1 0 0 Z " fill="#D0D2D4" transform="translate(1109,100)"/>
<path d="M0 0 C7.32215357 -0.36010591 7.32215357 -0.36010591 10 1.0625 C11.60856522 4.17909511 11.42213381 6.56262469 11 10 C9.4375 12.4375 9.4375 12.4375 7 14 C4.69 14 2.38 14 0 14 C0 9.38 0 4.76 0 0 Z " fill="#15181F" transform="translate(826,101)"/>
<path d="M0 0 C3.80703755 2.02501998 4.7651981 3.25415866 6.0625 7.375 C5.96304752 13.14324397 3.1114791 15.83799912 -0.75 19.875 C-1.4925 20.57625 -2.235 21.2775 -3 22 C-7.53219873 19.98459709 -10.28317125 17.11263067 -13 13 C-14.125 9.375 -14.125 9.375 -14 6 C-10.33926195 0.19331206 -6.70934907 -0.89972114 0 0 Z M-11 6 C-11.83483326 8.86976283 -11.83483326 8.86976283 -11 12 C-9.21842286 14.55908624 -7.19579737 16.7911324 -5 19 C-1.24032914 17.262337 0.74176677 15.54865222 3 12 C3.75015195 8.95691709 3.75015195 8.95691709 3 6 C0.57904909 3.37153902 -1.04614692 2.18611767 -4.5625 1.5 C-7.88912957 2.18238555 -9.04078918 3.24259218 -11 6 Z " fill="#B8B9BB" transform="translate(808,97)"/>
<path d="M0 0 C0.08153933 1.58246707 0.13943557 3.16616273 0.1875 4.75 C0.22230469 5.63171875 0.25710938 6.5134375 0.29296875 7.421875 C-0.05573255 10.49044646 -0.86291384 11.80214362 -3 14 C-5.5625 14.375 -5.5625 14.375 -8 14 C-10 12 -10 12 -10.3125 8.6875 C-9.98608688 4.83582516 -9.32127833 3.03551781 -7 0 C-4.3333581 -1.33332095 -2.83319697 -0.67102033 0 0 Z " fill="#22252B" transform="translate(1123,74)"/>
<path d="M0 0 C0.66 0 1.32 0 2 0 C1.67 1.65 1.34 3.3 1 5 C2.11375 4.79375 3.2275 4.5875 4.375 4.375 C5.57125 4.25125 6.7675 4.1275 8 4 C8.66 4.66 9.32 5.32 10 6 C9.8125 9.5 9.8125 9.5 9 13 C5.91111478 15.05925681 5.29064073 15.2390374 1.8125 15.125 C-0.0746875 15.063125 -0.0746875 15.063125 -2 15 C-1.85816304 13.24967156 -1.71136571 11.49974466 -1.5625 9.75 C-1.48128906 8.77546875 -1.40007813 7.8009375 -1.31640625 6.796875 C-1.04925416 4.43538247 -0.64628032 2.28098935 0 0 Z " fill="#D6D7D8" transform="translate(1020,73)"/>
<path d="M0 0 C3.96 0 7.92 0 12 0 C12 0.99 12 1.98 12 3 C9.36 3 6.72 3 4 3 C4 4.65 4 6.3 4 8 C5.98 8 7.96 8 10 8 C10 8.99 10 9.98 10 11 C8.02 11 6.04 11 4 11 C4 13.64 4 16.28 4 19 C2.68 19 1.36 19 0 19 C0 12.73 0 6.46 0 0 Z " fill="#F2F2F3" transform="translate(909,36)"/>
<path d="M0 0 C0.66 0 1.32 0 2 0 C1.85816304 1.75032844 1.71136571 3.50025534 1.5625 5.25 C1.48128906 6.22453125 1.40007813 7.1990625 1.31640625 8.203125 C1 11 1 11 0 15 C-2.97 15 -5.94 15 -9 15 C-10.39935013 12.20129973 -10.25265405 10.09501208 -10 7 C-8.9375 5.0625 -8.9375 5.0625 -7 4 C-3.3125 4.3125 -3.3125 4.3125 0 5 C0 3.35 0 1.7 0 0 Z " fill="#D8D8D9" transform="translate(983,73)"/>
<path d="M0 0 C1.98 0 3.96 0 6 0 C6 6.27 6 12.54 6 19 C4.02 19 2.04 19 0 19 C0 12.73 0 6.46 0 0 Z " fill="#E1E1E2" transform="translate(261,85)"/>
<path d="M0 0 C1.21816406 0.03480469 1.21816406 0.03480469 2.4609375 0.0703125 C3.68683594 0.09738281 3.68683594 0.09738281 4.9375 0.125 C5.87722656 0.15980469 5.87722656 0.15980469 6.8359375 0.1953125 C6.69486003 1.65411359 6.54791335 3.11234801 6.3984375 4.5703125 C6.31722656 5.38242188 6.23601562 6.19453125 6.15234375 7.03125 C5.8359375 9.1953125 5.8359375 9.1953125 4.8359375 11.1953125 C-1.21875 11.390625 -1.21875 11.390625 -3.1640625 11.1953125 C-3.8240625 10.5353125 -4.4840625 9.8753125 -5.1640625 9.1953125 C-4.53649956 0.40943137 -4.53649956 0.40943137 0 0 Z " fill="#D6D7D9" transform="translate(1059.1640625,76.8046875)"/>
<path d="M0 0 C2.97 0 5.94 0 9 0 C9 3.63 9 7.26 9 11 C9.66 11.33 10.32 11.66 11 12 C9.54176788 12.0270043 8.08339325 12.04639787 6.625 12.0625 C5.81289062 12.07410156 5.00078125 12.08570312 4.1640625 12.09765625 C2 12 2 12 0 11 C0 7.37 0 3.74 0 0 Z " fill="#0E3849" transform="translate(85,72)"/>
<path d="M0 0 C0.66 0 1.32 0 2 0 C2 1.32 2 2.64 2 4 C3.98 4 5.96 4 8 4 C8 4.99 8 5.98 8 7 C6.02 7 4.04 7 2 7 C2.33 10.96 2.66 14.92 3 19 C5.475 19.99 5.475 19.99 8 21 C8 21.66 8 22.32 8 23 C4.625 23.1875 4.625 23.1875 1 23 C-1.42130331 19.36804504 -1.21022785 17.61650652 -1.125 13.3125 C-1.09792969 11.54326172 -1.09792969 11.54326172 -1.0703125 9.73828125 C-1.03550781 8.38283203 -1.03550781 8.38283203 -1 7 C-1.99 7 -2.98 7 -4 7 C-4 5 -4 5 -2.5625 3.5 C-2.046875 3.005 -1.53125 2.51 -1 2 C-0.67 1.34 -0.34 0.68 0 0 Z " fill="#E4E5E6" transform="translate(207,41)"/>
<path d="M0 0 C1.32 0 2.64 0 4 0 C4 1.32 4 2.64 4 4 C4.99 4 5.98 4 7 4 C7 4.99 7 5.98 7 7 C6.01 7 5.02 7 4 7 C4.33 9.64 4.66 12.28 5 15 C5.99 15.33 6.98 15.66 8 16 C8 16.99 8 17.98 8 19 C5.125 19.125 5.125 19.125 2 19 C0 17 0 17 -0.1953125 14.6171875 C-0.17210937 13.71226563 -0.14890625 12.80734375 -0.125 11.875 C-0.10695313 10.96492188 -0.08890625 10.05484375 -0.0703125 9.1171875 C-0.04710937 8.41851562 -0.02390625 7.71984375 0 7 C-0.66 7 -1.32 7 -2 7 C-2 5.68 -2 4.36 -2 3 C-1.34 3 -0.68 3 0 3 C0 2.01 0 1.02 0 0 Z " fill="#EDEDEE" transform="translate(1104,36)"/>
<path d="M0 0 C0 0.99 0 1.98 0 3 C-1.11375 3.12375 -2.2275 3.2475 -3.375 3.375 C-7.03103677 3.6465813 -7.03103677 3.6465813 -9 6 C-9.31537716 10.33643601 -9.44897847 12.32653229 -7 16 C-5.02252878 16.36297936 -5.02252878 16.36297936 -2.875 16.1875 C-1.59625 16.125625 -0.3175 16.06375 1 16 C0.67 16.99 0.34 17.98 0 19 C-1.43655854 19.08131463 -2.8744483 19.13933559 -4.3125 19.1875 C-5.51326172 19.23970703 -5.51326172 19.23970703 -6.73828125 19.29296875 C-9 19 -9 19 -10.73046875 17.67578125 C-13.17846706 14.44442349 -13.40920304 10.97880486 -13.3359375 7.0078125 C-13 5 -13 5 -11 2 C-6.97020535 -0.68652977 -4.76065969 -0.40344574 0 0 Z " fill="#F0F1F1" transform="translate(201,45)"/>
<path d="M0 0 C2.82190981 -0.43413997 4.37987679 -0.35140315 6.875 1.0625 C8.66310335 4.14201133 7.74592606 6.64333273 7 10 C6 11 6 11 3.0625 11.1875 C0 11 0 11 -2 9 C-2.34490322 4.94738713 -2.30163882 3.45245824 0 0 Z " fill="#D1D2D4" transform="translate(1065,104)"/>
<path d="M0 0 C2.5625 0.3125 2.5625 0.3125 4.375 1.5 C5.97371458 3.94014331 5.92090349 5.44527207 5.5625 8.3125 C4.5725 9.7975 4.5725 9.7975 3.5625 11.3125 C0.5625 11.625 0.5625 11.625 -2.4375 11.3125 C-4.4375 9.3125 -4.4375 9.3125 -4.6875 5.8125 C-4.40166115 1.81075612 -4.09542045 0.5250539 0 0 Z " fill="#D8D9DA" transform="translate(1080.4375,103.6875)"/>
<path d="M0 0 C2.475 0.495 2.475 0.495 5 1 C7.23167185 0.63143136 7.23167185 0.63143136 9 0 C9 1.65 9 3.3 9 5 C7.68 5.33 6.36 5.66 5 6 C4.67 9.3 4.34 12.6 4 16 C2.68 16 1.36 16 0 16 C0 10.72 0 5.44 0 0 Z " fill="#EDEDED" transform="translate(960,39)"/>
<path d="M0 0 C0.33 0 0.66 0 1 0 C0.63619403 6.30597015 0.63619403 6.30597015 -2.0625 9.25 C-5.62303277 11.37116846 -9.07570077 12.66972908 -13 14 C-13 18.29 -13 22.58 -13 27 C-13.99 26.67 -14.98 26.34 -16 26 C-16 21.38 -16 16.76 -16 12 C-11.80078125 10.14453125 -11.80078125 10.14453125 -7.6015625 8.2890625 C-3.93715986 6.4733675 -2.72638707 4.56786661 -1 1 C-0.67 0.67 -0.34 0.34 0 0 Z " fill="#096D8F" transform="translate(115,70)"/>
<path d="M0 0 C0.66 0 1.32 0 2 0 C2 3.3 2 6.6 2 10 C2.66 10 3.32 10 4 10 C4 10.66 4 11.32 4 12 C3.34 12 2.68 12 2 12 C2 12.99 2 13.98 2 15 C1.34 15 0.68 15 0 15 C0 14.01 0 13.02 0 12 C-2.31 12 -4.62 12 -7 12 C-5.50328459 7.50985376 -3.16631659 3.52151236 0 0 Z " fill="#ADB0B3" transform="translate(1010,100)"/>
<path d="M0 0 C2 3 2 3 2 6 C-0.97 6 -3.94 6 -7 6 C-7 6.99 -7 7.98 -7 9 C-3.535 8.505 -3.535 8.505 0 8 C0 8.66 0 9.32 0 10 C-2.73247348 11.36623674 -4.98198902 11.128426 -8 11 C-9 10 -9 10 -9.25 6.625 C-9 3 -9 3 -7.875 1.0625 C-5.12198451 -0.49754211 -3.0996593 -0.39570119 0 0 Z " fill="#D3D3D5" transform="translate(1014,77)"/>
<path d="M0 0 C2.64 0 5.28 0 8 0 C7.835 0.639375 7.67 1.27875 7.5 1.9375 C6.96073333 3.80826821 6.96073333 3.80826821 7 5 C7 7.33333333 7 9.66666667 7 12 C5.02 12 3.04 12 1 12 C0.67 8.04 0.34 4.08 0 0 Z " fill="#11151C" transform="translate(76,71)"/>
<path d="M0 0 C3.375 -0.125 3.375 -0.125 7 0 C9 2 9 2 9.3125 4.5 C9.1578125 5.7375 9.1578125 5.7375 9 7 C5.5647952 9.29013653 4.014669 9.17842973 0 9 C0 6.03 0 3.06 0 0 Z " fill="#15181F" transform="translate(132,42)"/>
<path d="M0 0 C2.64 0 5.28 0 8 0 C8 0.99 8 1.98 8 3 C7.01 3.66 6.02 4.32 5 5 C4.41810734 7.42521494 4.41810734 7.42521494 4.3125 10.125 C4.24675781 11.03507812 4.18101562 11.94515625 4.11328125 12.8828125 C4.07589844 13.58148438 4.03851562 14.28015625 4 15 C2.68 15 1.36 15 0 15 C0 10.05 0 5.1 0 0 Z " fill="#F3F3F3" transform="translate(1009,40)"/>
<path d="M0 0 C2.375 -0.125 2.375 -0.125 5 0 C7 2 7 2 7.1953125 4.1640625 C7.17210937 4.97617188 7.14890625 5.78828125 7.125 6.625 C7.10695313 7.44226563 7.08890625 8.25953125 7.0703125 9.1015625 C7.03550781 10.04128906 7.03550781 10.04128906 7 11 C4.36 11 1.72 11 -1 11 C-1.33 9.35 -1.66 7.7 -2 6 C0.64738916 4.5393715 1.89448334 4 5 4 C5 3.34 5 2.68 5 2 C3.02 2.33 1.04 2.66 -1 3 C-0.67 2.01 -0.34 1.02 0 0 Z " fill="#D2D3D4" transform="translate(863,104)"/>
<path d="M0 0 C2.625 0.375 2.625 0.375 5 1 C6.25 7.625 6.25 7.625 4 11 C1.5625 10.625 1.5625 10.625 -1 10 C-2.38125018 7.23749964 -2.19079306 5.05268901 -2 2 C-1.34 1.34 -0.68 0.68 0 0 Z " fill="#24272D" transform="translate(225,89)"/>
<path d="M0 0 C2.14576637 -0.02685938 4.29162645 -0.04633088 6.4375 -0.0625 C7.63246094 -0.07410156 8.82742188 -0.08570312 10.05859375 -0.09765625 C13 0 13 0 14 1 C14.07205511 2.68608966 14.08386068 4.37500659 14.0625 6.0625 C14.05347656 6.98160156 14.04445313 7.90070313 14.03515625 8.84765625 C14.02355469 9.55792969 14.01195312 10.26820312 14 11 C13.34 11 12.68 11 12 11 C12 8.03 12 5.06 12 2 C10.68 2 9.36 2 8 2 C8 4.97 8 7.94 8 11 C7.34 11 6.68 11 6 11 C6 8.03 6 5.06 6 2 C4.68 2.33 3.36 2.66 2 3 C1.67 5.64 1.34 8.28 1 11 C0.67 11 0.34 11 0 11 C0 7.37 0 3.74 0 0 Z " fill="#D4D5D6" transform="translate(874,104)"/>
<path d="M0 0 C7.32215357 -0.36010591 7.32215357 -0.36010591 10 1.0625 C11.60856522 4.17909511 11.42213381 6.56262469 11 10 C9.4375 12.4375 9.4375 12.4375 7 14 C4.69 14 2.38 14 0 14 C0 9.38 0 4.76 0 0 Z M2 1 C2 4.63 2 8.26 2 12 C3.65 12 5.3 12 7 12 C9.37994368 10.05667668 9.37994368 10.05667668 9.25 6.5 C9.37994368 2.94332332 9.37994368 2.94332332 7 1 C5.35 1 3.7 1 2 1 Z " fill="#DDDDDF" transform="translate(826,101)"/>
<path d="M0 0 C2 2 2 2 2 6 C-0.64 6 -3.28 6 -6 6 C-5.01 7.485 -5.01 7.485 -4 9 C-2.35 8.67 -0.7 8.34 1 8 C0.67 8.99 0.34 9.98 0 11 C-4.44936709 11.36075949 -4.44936709 11.36075949 -6.8125 9.8125 C-8.42525784 7.35092224 -8.4334014 5.88934264 -8 3 C-5.84871852 -0.2835349 -3.77529378 -0.48401202 0 0 Z " fill="#87898C" transform="translate(856,104)"/>
<path d="M0 0 C0.66 0 1.32 0 2 0 C2.33 1.98 2.66 3.96 3 6 C4.65 4.35 6.3 2.7 8 1 C8.66 1.33 9.32 1.66 10 2 C9.484375 2.5775 8.96875 3.155 8.4375 3.75 C6.79713356 5.82860945 6.79713356 5.82860945 7.125 7.9375 C8.19200202 10.45257618 9.53054561 12.69998443 11 15 C7.83884224 13.63016497 7.0072908 13.0109362 5 10 C4.34 10 3.68 10 3 10 C2.67 11.65 2.34 13.3 2 15 C1.34 15 0.68 15 0 15 C0 10.05 0 5.1 0 0 Z " fill="#D3D4D6" transform="translate(1123,100)"/>
<path d="M0 0 C2.5 0.25 2.5 0.25 4.5 2.25 C4.5 3.57 4.5 4.89 4.5 6.25 C1.86 6.25 -0.78 6.25 -3.5 6.25 C-2.51 7.735 -2.51 7.735 -1.5 9.25 C0.48 8.92 2.46 8.59 4.5 8.25 C4.5 8.91 4.5 9.57 4.5 10.25 C1.125 10.875 1.125 10.875 -2.5 11.25 C-4.5 9.25 -4.5 9.25 -4.75 5.75 C-4.46177779 1.71488904 -4.15174939 0.41517494 0 0 Z " fill="#E2E3E4" transform="translate(972.5,103.75)"/>
<path d="M0 0 C2.97 0 5.94 0 9 0 C9 0.33 9 0.66 9 1 C6.69 1 4.38 1 2 1 C2.33 1.99 2.66 2.98 3 4 C4.65 4.33 6.3 4.66 8 5 C8.90991047 7.97788882 9.25960381 9.43497994 7.9375 12.3125 C6 14 6 14 2.8125 14.25 C1.884375 14.1675 0.95625 14.085 0 14 C-0.33 12.68 -0.66 11.36 -1 10 C1.31 10.66 3.62 11.32 6 12 C6 10.35 6 8.7 6 7 C3.69 7.33 1.38 7.66 -1 8 C-0.67 5.36 -0.34 2.72 0 0 Z " fill="#D4D4D6" transform="translate(1140,74)"/>
<path d="M0 0 C0.33 0 0.66 0 1 0 C0.89642657 5.07509791 0.09274396 7.3264727 -3.5625 10.9375 C-4.69440729 11.97375316 -5.83590893 13.00003665 -7 14 C-10.1489715 12.63088196 -12.0478487 11.1247864 -14.25 8.5 C-14.77078125 7.8915625 -15.2915625 7.283125 -15.828125 6.65625 C-17 5 -17 5 -17 3 C-13.2047869 4.49097658 -11.38957269 6.75700849 -9 10 C-5.52289751 8.59136573 -4.15256208 7.11397363 -2.3125 3.875 C-1.56296645 2.57085804 -0.79775205 1.27521703 0 0 Z " fill="#C6C7C9" transform="translate(812,105)"/>
<path d="M0 0 C2.875 0.875 2.875 0.875 4.875 2.875 C5.17578125 4.93359375 5.17578125 4.93359375 5.1875 7.3125 C5.20425781 8.09496094 5.22101562 8.87742187 5.23828125 9.68359375 C4.78972661 12.38939111 4.05713746 13.25500568 1.875 14.875 C-1.21315875 15.26101984 -3.22684376 15.35401666 -6 13.875 C-7.81219102 10.65332708 -7.75860845 7.42035963 -7.125 3.875 C-4.95085526 0.44654098 -4.08370138 -0.16334806 0 0 Z M-4.9375 2.9375 C-6.81855537 6.00659034 -5.87764699 8.48808855 -5.125 11.875 C-4.01241409 13.20245166 -4.01241409 13.20245166 -1.1875 13.125 C-0.176875 13.0425 0.83375 12.96 1.875 12.875 C4.03002531 9.64246204 4.34356135 8.62349077 3.875 4.875 C2.72853452 2.97838257 2.72853452 2.97838257 0.875 1.875 C-2.90002919 1.53785367 -2.90002919 1.53785367 -4.9375 2.9375 Z " fill="#DEDEE0" transform="translate(925.125,100.125)"/>
<path d="M0 0 C2.875 1 2.875 1 4.25 3.0625 C4.45625 3.701875 4.6625 4.34125 4.875 5 C4.215 5 3.555 5 2.875 5 C2.545 4.34 2.215 3.68 1.875 3 C0.20888095 2.957279 -1.45882885 2.95936168 -3.125 3 C-4.52932936 4.17718985 -4.52932936 4.17718985 -4.25 7.5 C-4.52932936 10.82281015 -4.52932936 10.82281015 -3.125 12 C-0.06018979 12.1613058 1.93049278 11.98150241 4.875 11 C4.215 12.32 3.555 13.64 2.875 15 C-3.52596618 15.48309179 -3.52596618 15.48309179 -6.0625 13.4375 C-7.53782332 10.05293473 -7.58174603 7.65396822 -7.125 4 C-4.94552585 0.64696285 -4.02721219 0 0 0 Z " fill="#D6D6D7" transform="translate(1143.125,100)"/>
<path d="M0 0 C0.08153933 1.58246707 0.13943557 3.16616273 0.1875 4.75 C0.22230469 5.63171875 0.25710938 6.5134375 0.29296875 7.421875 C-0.05573255 10.49044646 -0.86291384 11.80214362 -3 14 C-5.5625 14.375 -5.5625 14.375 -8 14 C-10 12 -10 12 -10.3125 8.6875 C-9.98608688 4.83582516 -9.32127833 3.03551781 -7 0 C-4.3333581 -1.33332095 -2.83319697 -0.67102033 0 0 Z M-5 1 C-7.60334924 3.71182212 -7.99456691 4.89133813 -8.1875 8.75 C-8.125625 9.8225 -8.06375 10.895 -8 12 C-6.35 12 -4.7 12 -3 12 C-0.90649311 8.5980513 -0.82057837 5.94727588 -1 2 C-2.32 1.67 -3.64 1.34 -5 1 Z " fill="#E2E2E3" transform="translate(1123,74)"/>
<path d="M0 0 C1.98 0 3.96 0 6 0 C6.8125 2.125 6.8125 2.125 7 5 C5.55576519 7.30107561 3.89127865 9.01646386 2 11 C3.32 11.33 4.64 11.66 6 12 C6 12.66 6 13.32 6 14 C2.7 14 -0.6 14 -4 14 C-2.71914841 10.15744523 -0.72609411 9.00468298 2.40625 6.59765625 C4.23588806 4.76353378 4.6072766 3.52542967 5 1 C3.02463255 1.34786708 3.02463255 1.34786708 1 2 C0.67 2.66 0.34 3.32 0 4 C-0.66 4 -1.32 4 -2 4 C-1.34 2.68 -0.68 1.36 0 0 Z " fill="#CFD1D3" transform="translate(938,74)"/>
<path d="M0 0 C4.55555556 0.55555556 4.55555556 0.55555556 6 2 C6.1875 4.4375 6.1875 4.4375 6 7 C5.34 7.66 4.68 8.32 4 9 C-0.55555556 8.44444444 -0.55555556 8.44444444 -2 7 C-2.1875 4.5625 -2.1875 4.5625 -2 2 C-1.34 1.34 -0.68 0.68 0 0 Z " fill="#1E2127" transform="translate(995,43)"/>
<path d="M0 0 C0.66 0 1.32 0 2 0 C2.33 1.32 2.66 2.64 3 4 C3.804375 4.144375 4.60875 4.28875 5.4375 4.4375 C8 5 8 5 9 6 C9.07179964 7.51928038 9.08392007 9.04167482 9.0625 10.5625 C9.05347656 11.38878906 9.04445313 12.21507813 9.03515625 13.06640625 C9.02355469 13.70449219 9.01195312 14.34257813 9 15 C8.34 15 7.68 15 7 15 C6.67 12.36 6.34 9.72 6 7 C4.68 6.67 3.36 6.34 2 6 C2 8.97 2 11.94 2 15 C1.34 15 0.68 15 0 15 C0 10.05 0 5.1 0 0 Z " fill="#CFD1D3" transform="translate(1026,100)"/>
<path d="M0 0 C2.625 0.375 2.625 0.375 5 1 C5.625 3.3125 5.625 3.3125 6 6 C5.01 7.485 5.01 7.485 4 9 C-0.875 8.125 -0.875 8.125 -2 7 C-2.1875 4.5625 -2.1875 4.5625 -2 2 C-1.34 1.34 -0.68 0.68 0 0 Z " fill="#1B242D" transform="translate(1139,43)"/>
<path d="M0 0 C4.55555556 0.55555556 4.55555556 0.55555556 6 2 C6.1875 4.4375 6.1875 4.4375 6 7 C5.34 7.66 4.68 8.32 4 9 C1.375 8.625 1.375 8.625 -1 8 C-1.625 5.125 -1.625 5.125 -2 2 C-1.34 1.34 -0.68 0.68 0 0 Z " fill="#1C1F26" transform="translate(947,43)"/>
<path d="M0 0 C1.99954746 -0.04254356 4.00041636 -0.04080783 6 0 C7 1 7 1 7.375 3.25 C6.84916402 7.10613052 4.85570359 8.50125936 2 11 C3.32 11.33 4.64 11.66 6 12 C6 12.66 6 13.32 6 14 C2.7 14 -0.6 14 -4 14 C-4 13.34 -4 12.68 -4 12 C-2.7262007 11.01055681 -1.40490671 10.0816514 -0.0625 9.1875 C3.30344529 6.82128029 3.30344529 6.82128029 5 3.125 C5 2.42375 5 1.7225 5 1 C3.35 1.33 1.7 1.66 0 2 C0 2.66 0 3.32 0 4 C-0.66 4 -1.32 4 -2 4 C-1.34 2.68 -0.68 1.36 0 0 Z " fill="#E0E0E1" transform="translate(1129,74)"/>
<path d="M0 0 C1.98 0 3.96 0 6 0 C6.8125 2.125 6.8125 2.125 7 5 C5.55576519 7.30107561 3.89127865 9.01646386 2 11 C3.32 11.33 4.64 11.66 6 12 C6 12.66 6 13.32 6 14 C2.7 14 -0.6 14 -4 14 C-4 13.34 -4 12.68 -4 12 C-2.7262007 11.01055681 -1.40490671 10.0816514 -0.0625 9.1875 C3.30344529 6.82128029 3.30344529 6.82128029 5 3.125 C5 2.42375 5 1.7225 5 1 C3.35 1.33 1.7 1.66 0 2 C0 2.66 0 3.32 0 4 C-0.66 4 -1.32 4 -2 4 C-1.34 2.68 -0.68 1.36 0 0 Z " fill="#E5E6E7" transform="translate(950,74)"/>
<path d="M0 0 C3.625 -0.1875 3.625 -0.1875 7 0 C7.3125 2.6875 7.3125 2.6875 7 6 C4.5 8.875 4.5 8.875 2 11 C3.32 11.33 4.64 11.66 6 12 C6 12.66 6 13.32 6 14 C3.03 14 0.06 14 -3 14 C-2 11 -2 11 1 8.5625 C4.08062863 6.34737467 4.08062863 6.34737467 4.875 3.6875 C4.91625 3.130625 4.9575 2.57375 5 2 C4.401875 2.165 3.80375 2.33 3.1875 2.5 C1 3 1 3 -2 3 C-1.34 2.01 -0.68 1.02 0 0 Z " fill="#CDCED0" transform="translate(1103,74)"/>
<path d="M0 0 C0.99 0.33 1.98 0.66 3 1 C3.33 2.65 3.66 4.3 4 6 C4.598125 5.175 5.19625 4.35 5.8125 3.5 C6.534375 2.675 7.25625 1.85 8 1 C8.99 1 9.98 1 11 1 C9.55041382 3.5054576 8.09101202 6.00418199 6.625 8.5 C6.2125 9.21542969 5.8 9.93085937 5.375 10.66796875 C4.30548562 12.47924311 3.1580962 14.24404186 2 16 C1.34 16 0.68 16 0 16 C0.08378906 15.43152344 0.16757813 14.86304687 0.25390625 14.27734375 C0.91910197 9.23364455 0.9568837 4.99705931 0 0 Z " fill="#D0D2D4" transform="translate(1077,77)"/>
<path d="M0 0 C6.93359375 -0.09765625 6.93359375 -0.09765625 9 0 C9.33 0.33 9.66 0.66 10 1 C9.91036938 2.69141656 9.75422324 4.37959602 9.5625 6.0625 C9.46066406 6.98160156 9.35882812 7.90070313 9.25390625 8.84765625 C9.17011719 9.55792969 9.08632813 10.26820312 9 11 C8.34 11 7.68 11 7 11 C7.33 8.03 7.66 5.06 8 2 C6.35 2.33 4.7 2.66 3 3 C2.34 5.64 1.68 8.28 1 11 C0.34 11 -0.32 11 -1 11 C-0.67 7.37 -0.34 3.74 0 0 Z " fill="#C9CACC" transform="translate(960,77)"/>
<path d="M0 0 C1.670625 0.061875 1.670625 0.061875 3.375 0.125 C3.5625 2.5 3.5625 2.5 3.375 5.125 C0.375 7.125 0.375 7.125 -2.3125 6.75 C-3.075625 6.54375 -3.83875 6.3375 -4.625 6.125 C-5.25 4.25 -5.25 4.25 -5.625 2.125 C-3.625 0.125 -3.625 0.125 0 0 Z " fill="#24272D" transform="translate(176.625,54.875)"/>
<path d="M0 0 C1 1 1 1 1.09765625 2.84765625 C1.04882812 5.92382812 1.04882812 5.92382812 1 9 C0.360625 9.28875 -0.27875 9.5775 -0.9375 9.875 C-3.15206079 10.82823451 -3.15206079 10.82823451 -4 13 C-4.33 11.68 -4.66 10.36 -5 9 C-4.34 8.67 -3.68 8.34 -3 8 C-2.957279 6.33388095 -2.95936168 4.66617115 -3 3 C-4.96822886 1.03177114 -8.34808709 1.33751619 -11 1 C-11 0.67 -11 0.34 -11 0 C-6.99756684 -0.83771857 -3.95651739 -1.13043354 0 0 Z " fill="#E7E7E8" transform="translate(143,41)"/>
<path d="M0 0 C2.97 0 5.94 0 9 0 C9 0.66 9 1.32 9 2 C6.69 2 4.38 2 2 2 C2 3.65 2 5.3 2 7 C3.98 7 5.96 7 8 7 C8 7.33 8 7.66 8 8 C6.02 8 4.04 8 2 8 C2 10.31 2 12.62 2 15 C1.34 15 0.68 15 0 15 C0 10.05 0 5.1 0 0 Z " fill="#CFD1D3" transform="translate(1045,100)"/>
<path d="M0 0 C0.66 0 1.32 0 2 0 C1.67 2.97 1.34 5.94 1 9 C2.65 8.67 4.3 8.34 6 8 C6.66 5.36 7.32 2.72 8 0 C8.66 0 9.32 0 10 0 C9.34 3.63 8.68 7.26 8 11 C1.84765625 11.09765625 1.84765625 11.09765625 0 11 C-1 10 -1 10 -1.125 6.625 C-1 3 -1 3 0 0 Z " fill="#DEDFE0" transform="translate(1042,77)"/>
<path d="M0 0 C0 0.99 0 1.98 0 3 C-1.0725 3.12375 -2.145 3.2475 -3.25 3.375 C-7.49672206 3.92239083 -7.49672206 3.92239083 -11 6 C-11.81870185 9.56206661 -11.81870185 9.56206661 -12 13 C-12.33 13 -12.66 13 -13 13 C-13.60150376 5.90225564 -13.60150376 5.90225564 -11 2 C-6.97020535 -0.68652977 -4.76065969 -0.40344574 0 0 Z " fill="#D3D3D5" transform="translate(201,45)"/>
<path d="M0 0 C0.66 0.99 1.32 1.98 2 3 C5.49163111 7.32962258 9.96828875 8.97871428 15 11 C15 11.66 15 12.32 15 13 C9.4229097 12.58171823 5.34485382 10.38585455 1 7 C-1 4 -1 4 -0.625 1.8125 C-0.41875 1.214375 -0.2125 0.61625 0 0 Z " fill="#097497" transform="translate(45,71)"/>
<path d="M0 0 C3.3 0.33 6.6 0.66 10 1 C10 4 10 4 9 6 C6.03 6 3.06 6 0 6 C0 4.02 0 2.04 0 0 Z " fill="#0F2D3B" transform="translate(85,64)"/>
<path d="M0 0 C1.66611905 -0.042721 3.33382885 -0.04063832 5 0 C6 1 6 1 6.1875 3.4375 C6 6 6 6 4 8 C1.875 7.625 1.875 7.625 0 7 C-1.125 2.25 -1.125 2.25 0 0 Z " fill="#292B32" transform="translate(1078,106)"/>
<path d="M0 0 C0.78375 0.04125 1.5675 0.0825 2.375 0.125 C2.41754356 2.12454746 2.41580783 4.12541636 2.375 6.125 C1.375 7.125 1.375 7.125 -1.1875 7.1875 C-2.3940625 7.1565625 -2.3940625 7.1565625 -3.625 7.125 C-4.25 4.75 -4.25 4.75 -4.625 2.125 C-2.625 0.125 -2.625 0.125 0 0 Z " fill="#181C23" transform="translate(1060.625,78.875)"/>
<path d="M0 0 C1.2065625 0.0309375 1.2065625 0.0309375 2.4375 0.0625 C3.0625 2.4375 3.0625 2.4375 3.4375 5.0625 C1.4375 7.0625 1.4375 7.0625 -1.1875 7.1875 C-1.97125 7.14625 -2.755 7.105 -3.5625 7.0625 C-3.60504356 5.06295254 -3.60330783 3.06208364 -3.5625 1.0625 C-2.5625 0.0625 -2.5625 0.0625 0 0 Z " fill="#191C23" transform="translate(1024.5625,78.9375)"/>
<path d="M0 0 C1.2065625 0.0309375 1.2065625 0.0309375 2.4375 0.0625 C3.0625 2.4375 3.0625 2.4375 3.4375 5.0625 C1.4375 7.0625 1.4375 7.0625 -1.1875 7.1875 C-1.97125 7.14625 -2.755 7.105 -3.5625 7.0625 C-3.60504356 5.06295254 -3.60330783 3.06208364 -3.5625 1.0625 C-2.5625 0.0625 -2.5625 0.0625 0 0 Z " fill="#191B22" transform="translate(978.5625,78.9375)"/>
<path d="M0 0 C2.64 0 5.28 0 8 0 C8 1.98 8 3.96 8 6 C5.03 6 2.06 6 -1 6 C-0.34 5.67 0.32 5.34 1 5 C0.67 3.35 0.34 1.7 0 0 Z " fill="#0F3545" transform="translate(64,65)"/>
<path d="M0 0 C2.64 0 5.28 0 8 0 C8 0.99 8 1.98 8 3 C7.01 3.33 6.02 3.66 5 4 C5 4.66 5 5.32 5 6 C2.36 6 -0.28 6 -3 6 C-3 5.34 -3 4.68 -3 4 C-2.01 4 -1.02 4 0 4 C0 2.68 0 1.36 0 0 Z " fill="#111921" transform="translate(76,64)"/>
<path d="M0 0 C1.67542976 0.28604898 3.34385343 0.61781233 5 1 C5 2.65 5 4.3 5 6 C3.125 7.0625 3.125 7.0625 1 8 C0.34 7.67 -0.32 7.34 -1 7 C-1.04254356 5.00045254 -1.04080783 2.99958364 -1 1 C-0.67 0.67 -0.34 0.34 0 0 Z " fill="#1A1E24" transform="translate(1066,106)"/>
<path d="M0 0 C2.64 0 5.28 0 8 0 C8 0.33 8 0.66 8 1 C5.69 1 3.38 1 1 1 C1 2.65 1 4.3 1 6 C2.65 6 4.3 6 6 6 C6 6.66 6 7.32 6 8 C4.02 8 2.04 8 0 8 C0 9.98 0 11.96 0 14 C-0.66 14 -1.32 14 -2 14 C-1.85866501 12.22880197 -1.71176792 10.45804713 -1.5625 8.6875 C-1.48128906 7.70136719 -1.40007813 6.71523437 -1.31640625 5.69921875 C-1 3 -1 3 0 0 Z " fill="#D9D9DB" transform="translate(996,74)"/>
<path d="M0 0 C1.4540625 0.0309375 1.4540625 0.0309375 2.9375 0.0625 C3.2675 1.7125 3.5975 3.3625 3.9375 5.0625 C0.9675 5.0625 -2.0025 5.0625 -5.0625 5.0625 C-3.81634615 0.07788462 -3.81634615 0.07788462 0 0 Z " fill="#25282E" transform="translate(157.0625,47.9375)"/>
<path d="M0 0 C0.99 0.33 1.98 0.66 3 1 C2.34 1 1.68 1 1 1 C1 1.99 1 2.98 1 4 C1.66 4 2.32 4 3 4 C3 4.66 3 5.32 3 6 C2.34 6 1.68 6 1 6 C1 8.97 1 11.94 1 15 C0.34 15 -0.32 15 -1 15 C-1 12.03 -1 9.06 -1 6 C-1.66 6 -2.32 6 -3 6 C-3 5.34 -3 4.68 -3 4 C-2.34 4 -1.68 4 -1 4 C-0.67 2.68 -0.34 1.36 0 0 Z " fill="#D3D3D5" transform="translate(944,100)"/>
<path d="M0 0 C0.99 0.33 1.98 0.66 3 1 C1.08435828 2.60540415 -0.83246912 4.209355 -2.75 5.8125 C-3.55824219 6.49022461 -3.55824219 6.49022461 -4.3828125 7.18164062 C-7.20009316 9.53510069 -10.035535 11.83421368 -13 14 C-13.66 13.67 -14.32 13.34 -15 13 C-13.2519799 11.3936298 -11.50168356 9.78986703 -9.75 8.1875 C-9.25886719 7.73568359 -8.76773437 7.28386719 -8.26171875 6.81835938 C-2.38975621 1.45530026 -2.38975621 1.45530026 0 0 Z " fill="#F6D8D6" transform="translate(411,496)"/>
<path d="M0 0 C0.99 0 1.98 0 3 0 C3 4.95 3 9.9 3 15 C2.34 15 1.68 15 1 15 C1 11.04 1 7.08 1 3 C-0.32 3.33 -1.64 3.66 -3 4 C-1.6875 2 -1.6875 2 0 0 Z " fill="#C9CACD" transform="translate(996,100)"/>
<path d="M0 0 C0.99 0.33 1.98 0.66 3 1 C2.34 1 1.68 1 1 1 C1 1.99 1 2.98 1 4 C1.66 4 2.32 4 3 4 C3 4.66 3 5.32 3 6 C2.34 6 1.68 6 1 6 C1 8.97 1 11.94 1 15 C0.34 15 -0.32 15 -1 15 C-1 11.7 -1 8.4 -1 5 C-1.66 4.67 -2.32 4.34 -3 4 C-2.34 4 -1.68 4 -1 4 C-0.67 2.68 -0.34 1.36 0 0 Z " fill="#CDCDCF" transform="translate(936,100)"/>
<path d="M0 0 C0.66 0.33 1.32 0.66 2 1 C2 1.99 2 2.98 2 4 C-0.28703308 5.19725883 -2.57884862 6.38297018 -4.875 7.5625 C-5.52597656 7.90474609 -6.17695313 8.24699219 -6.84765625 8.59960938 C-8.53529857 9.46082891 -10.26579593 10.23686703 -12 11 C-12.66 10.67 -13.32 10.34 -14 10 C-12.22970554 8.70759488 -10.45874502 7.41610207 -8.6875 6.125 C-7.70136719 5.40570312 -6.71523438 4.68640625 -5.69921875 3.9453125 C-3.82476885 2.5944065 -1.92247007 1.28164671 0 0 Z " fill="#F6D9D7" transform="translate(392,517)"/>
<path d="M0 0 C0.66 0 1.32 0 2 0 C2 0.99 2 1.98 2 3 C2.66 3.33 3.32 3.66 4 4 C3.34 4 2.68 4 2 4 C2 6.64 2 9.28 2 12 C2.66 12 3.32 12 4 12 C4 12.66 4 13.32 4 14 C2.68 13.67 1.36 13.34 0 13 C-0.19551338 11.39679026 -0.38111983 9.79237014 -0.5625 8.1875 C-0.71912109 6.84751953 -0.71912109 6.84751953 -0.87890625 5.48046875 C-1 3 -1 3 0 0 Z " fill="#CFD1D2" transform="translate(1018,101)"/>
<path d="M0 0 C0 4.62 0 9.24 0 14 C-0.66 14 -1.32 14 -2 14 C-2.33 10.37 -2.66 6.74 -3 3 C-3.66 3 -4.32 3 -5 3 C-5 2.34 -5 1.68 -5 1 C-3 0 -3 0 0 0 Z " fill="#D5D5D6" transform="translate(896,101)"/>
<path d="M0 0 C0 4.62 0 9.24 0 14 C-0.66 14 -1.32 14 -2 14 C-2.33 10.37 -2.66 6.74 -3 3 C-3.66 3 -4.32 3 -5 3 C-5 2.34 -5 1.68 -5 1 C-3 0 -3 0 0 0 Z " fill="#CBCBCD" transform="translate(906,101)"/>
<path d="M0 0 C0.66 0.33 1.32 0.66 2 1 C2 5.95 2 10.9 2 16 C1.01 15.67 0.02 15.34 -1 15 C-1.02685412 12.68756208 -1.04632841 10.3750373 -1.0625 8.0625 C-1.07410156 6.77472656 -1.08570312 5.48695312 -1.09765625 4.16015625 C-1 1 -1 1 0 0 Z " fill="#0A627F" transform="translate(100,81)"/>
<path d="M0 0 C0.33 0 0.66 0 1 0 C1 1.65 1 3.3 1 5 C-2.3171411 6.4216319 -5.44219804 7.39009109 -9 8 C-9.66 6.68 -10.32 5.36 -11 4 C-7.37 4 -3.74 4 0 4 C0 2.68 0 1.36 0 0 Z " fill="#494B50" transform="translate(1100,44)"/>
<path d="M0 0 C0.78375 0.04125 1.5675 0.0825 2.375 0.125 C2.705 1.115 3.035 2.105 3.375 3.125 C1.395 3.125 -0.585 3.125 -2.625 3.125 C-2.625 4.775 -2.625 6.425 -2.625 8.125 C0.42413228 9.13611093 0.42413228 9.13611093 3.375 8.125 C3.045 9.115 2.715 10.105 2.375 11.125 C0 11.25 0 11.25 -2.625 11.125 C-4.625 9.125 -4.625 9.125 -4.875 5.625 C-4.58138251 1.51435512 -4.25902123 0.20281053 0 0 Z " fill="#E1E2E3" transform="translate(960.625,103.875)"/>
<path d="M0 0 C0.33 0.66 0.66 1.32 1 2 C0.67 2.66 0.34 3.32 0 4 C2.31 4 4.62 4 7 4 C7 4.33 7 4.66 7 5 C4.69 5 2.38 5 0 5 C0.99 6.485 0.99 6.485 2 8 C3.65 7.67 5.3 7.34 7 7 C6.67 7.99 6.34 8.98 6 10 C1.55063291 10.36075949 1.55063291 10.36075949 -0.8125 8.8125 C-2.40199375 6.3864306 -2.36487512 4.84602594 -2 2 C-1.34 1.34 -0.68 0.68 0 0 Z " fill="#E5E6E6" transform="translate(850,105)"/>
<path d="M0 0 C3.95464558 0.56494937 6.90192613 1.41827177 10 4 C10.8125 7.6875 10.8125 7.6875 11 11 C10.484375 10.2575 9.96875 9.515 9.4375 8.75 C6.52465608 5.46371455 3.87566094 4.01236241 0 2 C0 1.34 0 0.68 0 0 Z " fill="#08779A" transform="translate(104,63)"/>
<path d="M0 0 C1.65 0 3.3 0 5 0 C5.66 1.32 6.32 2.64 7 4 C6 5 6 5 2.9375 5.0625 C1.4834375 5.0315625 1.4834375 5.0315625 0 5 C0 3.35 0 1.7 0 0 Z " fill="#2C333B" transform="translate(1111,108)"/>
<path d="M0 0 C2.31 0.33 4.62 0.66 7 1 C7 1.33 7 1.66 7 2 C5.35 2 3.7 2 2 2 C2 2.99 2 3.98 2 5 C5.465 4.505 5.465 4.505 9 4 C9 4.66 9 5.32 9 6 C6.26752652 7.36623674 4.01801098 7.128426 1 7 C0 6 0 6 -0.0625 2.9375 C-0.041875 1.968125 -0.02125 0.99875 0 0 Z " fill="#D8D9DA" transform="translate(1005,81)"/>
<path d="M0 0 C1.98 0 3.96 0 6 0 C6 0.66 6 1.32 6 2 C5.01 2.33 4.02 2.66 3 3 C2.67 5.64 2.34 8.28 2 11 C1.34 11 0.68 11 0 11 C0 7.37 0 3.74 0 0 Z " fill="#CACCCD" transform="translate(1089,104)"/>
<path d="M0 0 C2.70459318 0.27045932 3.81265765 0.81265765 5.75 2.75 C7.21079991 5.37943983 7.24687966 7.0374441 7 10 C6.01 9.67 5.02 9.34 4 9 C3.30341637 7.34561387 2.63903117 5.67745682 2 4 C0.47992158 2.22722741 0.47992158 2.22722741 -1 1 C-0.67 0.67 -0.34 0.34 0 0 Z " fill="#AEAFB2" transform="translate(807,98)"/>
<path d="M0 0 C1.65 0 3.3 0 5 0 C5 0.66 5 1.32 5 2 C4.01 2.33 3.02 2.66 2 3 C1.19787372 4.87387216 1.19787372 4.87387216 0.8125 7.0625 C0.65394531 7.79597656 0.49539063 8.52945313 0.33203125 9.28515625 C0.22246094 9.85105469 0.11289063 10.41695312 0 11 C-0.66 11 -1.32 11 -2 11 C-1.125 3.375 -1.125 3.375 0 0 Z " fill="#D3D4D6" transform="translate(1070,77)"/>
<path d="M0 0 C0.66 0.33 1.32 0.66 2 1 C2 2.65 2 4.3 2 6 C1.34 6 0.68 6 0 6 C0 6.99 0 7.98 0 9 C0.99 9.33 1.98 9.66 3 10 C2.01 10 1.02 10 0 10 C0 10.66 0 11.32 0 12 C0.99 12.33 1.98 12.66 3 13 C1.68 13.33 0.36 13.66 -1 14 C-1 12.68 -1 11.36 -1 10 C-2.65 10 -4.3 10 -6 10 C-6 9.67 -6 9.34 -6 9 C-4.35 9 -2.7 9 -1 9 C-1 7.68 -1 6.36 -1 5 C-0.34 5 0.32 5 1 5 C0.67 3.35 0.34 1.7 0 0 Z " fill="#0B5A75" transform="translate(73,58)"/>
<path d="M0 0 C3.63 0 7.26 0 11 0 C7.40116297 2.69912777 6.20667109 3.55719252 2 4 C1.34 3.67 0.68 3.34 0 3 C0 2.01 0 1.02 0 0 Z " fill="#3F464D" transform="translate(1072,48)"/>
<path d="M0 0 C1.65 0 3.3 0 5 0 C5.5625 1.9375 5.5625 1.9375 6 4 C5 5 5 5 2.4375 5.0625 C1.2309375 5.0315625 1.2309375 5.0315625 0 5 C0 3.35 0 1.7 0 0 Z " fill="#242D35" transform="translate(1111,102)"/>
<path d="M0 0 C1.65 0 3.3 0 5 0 C4.67 1.65 4.34 3.3 4 5 C2.35 5 0.7 5 -1 5 C-0.67 3.35 -0.34 1.7 0 0 Z " fill="#2A2C32" transform="translate(246,95)"/>
<path d="M0 0 C1.65 0 3.3 0 5 0 C5 0.66 5 1.32 5 2 C4.01 2.33 3.02 2.66 2 3 C1.19787372 4.87387216 1.19787372 4.87387216 0.8125 7.0625 C0.65394531 7.79597656 0.49539063 8.52945313 0.33203125 9.28515625 C0.22246094 9.85105469 0.11289063 10.41695312 0 11 C-0.66 11 -1.32 11 -2 11 C-1.125 3.375 -1.125 3.375 0 0 Z " fill="#D4D6D8" transform="translate(1034,77)"/>
<path d="M0 0 C2.97 0 5.94 0 9 0 C9 0.66 9 1.32 9 2 C6.36 2 3.72 2 1 2 C1 2.99 1 3.98 1 5 C0.01 5 -0.98 5 -2 5 C-2 4.01 -2 3.02 -2 2 C-1.34 2 -0.68 2 0 2 C0 1.34 0 0.68 0 0 Z " fill="#0E3A4C" transform="translate(75,62)"/>
<path d="M0 0 C3.63 0 7.26 0 11 0 C11 0.33 11 0.66 11 1 C9.35 1 7.7 1 6 1 C5.67 1.99 5.34 2.98 5 4 C3.35 3.67 1.7 3.34 0 3 C0 2.01 0 1.02 0 0 Z " fill="#414349" transform="translate(927,48)"/>
<path d="M0 0 C0.99 0.33 1.98 0.66 3 1 C4.33106622 1.34227417 5.66400079 1.67751743 7 2 C7 2.66 7 3.32 7 4 C3.7 4 0.4 4 -3 4 C-3 3.34 -3 2.68 -3 2 C-2.01 1.34 -1.02 0.68 0 0 Z " fill="#C6C7C9" transform="translate(1128,84)"/>
<path d="M0 0 C0.99 0.33 1.98 0.66 3 1 C4.33106622 1.34227417 5.66400079 1.67751743 7 2 C7 2.66 7 3.32 7 4 C3.7 4 0.4 4 -3 4 C-3 3.34 -3 2.68 -3 2 C-2.01 1.34 -1.02 0.68 0 0 Z " fill="#C6C8CB" transform="translate(949,84)"/>
<path d="M0 0 C0.66 0 1.32 0 2 0 C1.67 1.65 1.34 3.3 1 5 C1.99 4.67 2.98 4.34 4 4 C4.66 4.66 5.32 5.32 6 6 C4.68 6.33 3.36 6.66 2 7 C1.67 8.65 1.34 10.3 1 12 C-1.83022097 8.00439392 -0.76210446 4.57262677 0 0 Z " fill="#C7C8CA" transform="translate(1020,73)"/>
<path d="M0 0 C3.625 -0.1875 3.625 -0.1875 7 0 C7.1875 2.875 7.1875 2.875 7 6 C6.01 6.66 5.02 7.32 4 8 C4.33 6.02 4.66 4.04 5 2 C4.401875 2.165 3.80375 2.33 3.1875 2.5 C1 3 1 3 -2 3 C-1.34 2.01 -0.68 1.02 0 0 Z " fill="#DEDEE0" transform="translate(1103,74)"/>
<path d="M0 0 C1.66611905 -0.042721 3.33382885 -0.04063832 5 0 C5.33 0.33 5.66 0.66 6 1 C5.91036938 2.69141656 5.75422324 4.37959602 5.5625 6.0625 C5.46066406 6.98160156 5.35882812 7.90070313 5.25390625 8.84765625 C5.12822266 9.91306641 5.12822266 9.91306641 5 11 C4.34 11 3.68 11 3 11 C3.03480469 10.37351562 3.06960938 9.74703125 3.10546875 9.1015625 C3.13253906 8.28429687 3.15960937 7.46703125 3.1875 6.625 C3.22230469 5.81289062 3.25710938 5.00078125 3.29296875 4.1640625 C3.19628906 3.44992188 3.09960938 2.73578125 3 2 C2.01 1.34 1.02 0.68 0 0 Z " fill="#E4E5E6" transform="translate(964,77)"/>
<path d="M0 0 C1.98 0 3.96 0 6 0 C5.67 1.32 5.34 2.64 5 4 C3.68 4 2.36 4 1 4 C0.67 2.68 0.34 1.36 0 0 Z " fill="#111E27" transform="translate(66,72)"/>
<path d="M0 0 C2.64 0 5.28 0 8 0 C7.67 1.32 7.34 2.64 7 4 C7 3.34 7 2.68 7 2 C4.69 2.66 2.38 3.32 0 4 C0 2.68 0 1.36 0 0 Z " fill="#111F29" transform="translate(76,71)"/>
<path d="M0 0 C2.64 0 5.28 0 8 0 C6.515 1.98 6.515 1.98 5 4 C3.0625 3.6875 3.0625 3.6875 1 3 C0.67 2.01 0.34 1.02 0 0 Z " fill="#30373E" transform="translate(969,110)"/>
<path d="M0 0 C1.65 0 3.3 0 5 0 C5.33 1.32 5.66 2.64 6 4 C4.02 4 2.04 4 0 4 C0 2.68 0 1.36 0 0 Z " fill="#E5E5E6" transform="translate(261,78)"/>
<path d="M0 0 C1.98 0 3.96 0 6 0 C6 3.63 6 7.26 6 11 C5.67 11 5.34 11 5 11 C4.67 8.36 4.34 5.72 4 3 C2.68 3 1.36 3 0 3 C0 2.01 0 1.02 0 0 Z " fill="#111921" transform="translate(88,72)"/>
<path d="M0 0 C2.64 0 5.28 0 8 0 C7.01 0.495 7.01 0.495 6 1 C5.67 1.99 5.34 2.98 5 4 C3.0625 3.6875 3.0625 3.6875 1 3 C0.67 2.01 0.34 1.02 0 0 Z " fill="#2C2F36" transform="translate(850,110)"/>
<path d="M0 0 C2.64 0 5.28 0 8 0 C7.67 0.99 7.34 1.98 7 3 C4.69 3 2.38 3 0 3 C0 2.01 0 1.02 0 0 Z " fill="#2A2D34" transform="translate(1007,83)"/>
<path d="M0 0 C0 0.99 0 1.98 0 3 C-2.31 3 -4.62 3 -7 3 C-6.67 2.01 -6.34 1.02 -6 0 C-3.50907189 -1.24546405 -2.58919267 -0.7767578 0 0 Z " fill="#414449" transform="translate(1096,43)"/>
<path d="M0 0 C0.66 0.66 1.32 1.32 2 2 C2.99 2 3.98 2 5 2 C5 2.99 5 3.98 5 5 C4.01 5 3.02 5 2 5 C1.67 6.98 1.34 8.96 1 11 C0.67 11 0.34 11 0 11 C0 7.37 0 3.74 0 0 Z " fill="#0E3C4E" transform="translate(87,72)"/>
<path d="M0 0 C1.98 0 3.96 0 6 0 C6 0.99 6 1.98 6 3 C3.69 3 1.38 3 -1 3 C-0.67 2.01 -0.34 1.02 0 0 Z " fill="#E4E5E5" transform="translate(195,45)"/>
<path d="M0 0 C4.875 0.875 4.875 0.875 6 2 C6.04063832 3.66617115 6.042721 5.33388095 6 7 C5.01 7 4.02 7 3 7 C2.814375 5.824375 2.814375 5.824375 2.625 4.625 C2.20882007 1.85942178 2.20882007 1.85942178 0 0 Z " fill="#E3E4E4" transform="translate(1024,77)"/>
<path d="M0 0 C1.125 1.75 1.125 1.75 2 4 C1.3125 6.1875 1.3125 6.1875 0 8 C-3 9 -3 9 -5.1875 8.0625 C-5.785625 7.711875 -6.38375 7.36125 -7 7 C-5.02 6.34 -3.04 5.68 -1 5 C-0.67 3.35 -0.34 1.7 0 0 Z " fill="#C2C2C4" transform="translate(835,106)"/>
<path d="M0 0 C0.33 0 0.66 0 1 0 C1.433125 1.423125 1.433125 1.423125 1.875 2.875 C2.76825109 6.05211578 2.76825109 6.05211578 5 8 C0.125 7.125 0.125 7.125 -1 6 C-1.125 3.5 -1.125 3.5 -1 1 C-0.67 0.67 -0.34 0.34 0 0 Z " fill="#E9E9EA" transform="translate(1055,80)"/>
<path d="M0 0 C1.32 0 2.64 0 4 0 C4 1.65 4 3.3 4 5 C2.68 5 1.36 5 0 5 C0 3.35 0 1.7 0 0 Z " fill="#0E3C4E" transform="translate(89,78)"/>
<path d="M0 0 C1.65 0 3.3 0 5 0 C5.33 0.99 5.66 1.98 6 3 C3.69 3 1.38 3 -1 3 C-0.67 2.01 -0.34 1.02 0 0 Z " fill="#292C32" transform="translate(1008,79)"/>
<path d="M0 0 C2.75 0.25 2.75 0.25 5 1 C2.80808632 3.19191368 1.88522592 3.27869352 -1 4 C-1.66 4.66 -2.32 5.32 -3 6 C-3.33 5.34 -3.66 4.68 -4 4 C-2.3125 1.9375 -2.3125 1.9375 0 0 Z " fill="#C7C8CA" transform="translate(1118,73)"/>
<path d="M0 0 C1.65 0 3.3 0 5 0 C5.33 0.99 5.66 1.98 6 3 C3.69 3 1.38 3 -1 3 C-0.67 2.01 -0.34 1.02 0 0 Z " fill="#2E353D" transform="translate(1073,43)"/>
<path d="M0 0 C1.65 0 3.3 0 5 0 C5.33 0.99 5.66 1.98 6 3 C3.69 3 1.38 3 -1 3 C-0.67 2.01 -0.34 1.02 0 0 Z " fill="#2C2F36" transform="translate(928,43)"/>
<path d="M0 0 C3.72114571 2.31537955 6.61229661 4.28579473 9 8 C5.56247993 6.4722133 2.81046312 4.49818944 0 2 C0 1.34 0 0.68 0 0 Z " fill="#F8E1DF" transform="translate(370,501)"/>
<path d="M0 0 C0.33 0 0.66 0 1 0 C0.67 2.31 0.34 4.62 0 7 C-1.32 7.33 -2.64 7.66 -4 8 C-2.66666667 5.33333333 -1.33333333 2.66666667 0 0 Z " fill="#BCBDBF" transform="translate(812,105)"/>
<path d="M0 0 C1.42944945 2.35438733 2.08661261 3.48032433 1.625 6.25 C1.41875 6.8275 1.2125 7.405 1 8 C-1.97 7.505 -1.97 7.505 -5 7 C-4.0409375 6.6596875 -4.0409375 6.6596875 -3.0625 6.3125 C-0.72806339 5.14749104 -0.72806339 5.14749104 -0.25 2.375 C-0.1675 1.59125 -0.085 0.8075 0 0 Z " fill="#C6C7C9" transform="translate(1063,80)"/>
<path d="M0 0 C0.33 0 0.66 0 1 0 C1 3.63 1 7.26 1 11 C0.01 11 -0.98 11 -2 11 C-1.34 7.37 -0.68 3.74 0 0 Z " fill="#0D475C" transform="translate(72,72)"/>
<path d="M0 0 C0 0.66 0 1.32 0 2 C-2.64 2 -5.28 2 -8 2 C-8 1.34 -8 0.68 -8 0 C-4.71023192 -1.09658936 -3.28696233 -0.79953138 0 0 Z " fill="#0F3545" transform="translate(81,68)"/>
<path d="M0 0 C1.98 0.66 3.96 1.32 6 2 C6 2.33 6 2.66 6 3 C3.03 3.66 0.06 4.32 -3 5 C-1 1 -1 1 0 0 Z " fill="#CDCED0" transform="translate(153,45)"/>
<path d="M0 0 C1.65 0 3.3 0 5 0 C4.34 1.32 3.68 2.64 3 4 C2.01 4 1.02 4 0 4 C0 2.68 0 1.36 0 0 Z " fill="#313339" transform="translate(863,110)"/>
<path d="M0 0 C1.65 0 3.3 0 5 0 C5 0.99 5 1.98 5 3 C3.02 3 1.04 3 -1 3 C-0.67 2.01 -0.34 1.02 0 0 Z " fill="#3E464C" transform="translate(970,106)"/>
</svg>
