<?xml version="1.0" encoding="UTF-8"?>
<svg version="1.1" xmlns="http://www.w3.org/2000/svg" width="400" height="400">
<path d="M0 0 C0.98774414 0.23605957 1.97548828 0.47211914 2.99316406 0.71533203 C55.23533174 13.70468793 98.58404064 46.62801552 127 92 C127.56799316 92.89912109 127.56799316 92.89912109 128.14746094 93.81640625 C139.9753301 112.81485698 147.27528323 134.22662657 152 156 C152.26466064 157.13743652 152.26466064 157.13743652 152.53466797 158.29785156 C158.38980667 184.1904471 157.13326383 215.34860368 151 241 C150.76394043 241.98774414 150.52788086 242.97548828 150.28466797 243.99316406 C137.29531207 296.23533174 104.37198448 339.58404064 59 368 C58.40058594 368.37866211 57.80117188 368.75732422 57.18359375 369.14746094 C38.18514302 380.9753301 16.77337343 388.27528323 -5 393 C-6.13743652 393.26466064 -6.13743652 393.26466064 -7.29785156 393.53466797 C-33.1904471 399.38980667 -64.34860368 398.13326383 -90 392 C-90.98774414 391.76394043 -91.97548828 391.52788086 -92.99316406 391.28466797 C-145.23533174 378.29531207 -188.58404064 345.37198448 -217 300 C-217.37866211 299.40058594 -217.75732422 298.80117188 -218.14746094 298.18359375 C-229.9753301 279.18514302 -237.27528323 257.77337343 -242 236 C-242.17644043 235.24170898 -242.35288086 234.48341797 -242.53466797 233.70214844 C-248.38980667 207.8095529 -247.13326383 176.65139632 -241 151 C-240.76394043 150.01225586 -240.52788086 149.02451172 -240.28466797 148.00683594 C-227.29531207 95.76466826 -194.37198448 52.41595936 -149 24 C-148.10087891 23.43200684 -148.10087891 23.43200684 -147.18359375 22.85253906 C-128.18514302 11.0246699 -106.77337343 3.72471677 -85 -1 C-84.24170898 -1.17644043 -83.48341797 -1.35288086 -82.70214844 -1.53466797 C-56.8095529 -7.38980667 -25.65139632 -6.13326383 0 0 Z " fill="#E10000" transform="translate(245,4)"/>
<path d="M0 0 C1.46203857 -0.01455482 1.46203857 -0.01455482 2.95361328 -0.02940369 C6.08500344 -0.05418463 9.21617802 -0.06691124 12.34765625 -0.07421875 C13.41718536 -0.07683716 14.48671448 -0.07945557 15.58865356 -0.08215332 C32.56267069 -0.08660348 48.74290987 0.81943656 65.41015625 4.23828125 C66.21710938 4.39312988 67.0240625 4.54797852 67.85546875 4.70751953 C80.31026857 7.1230445 94.02702757 10.54671691 105.41015625 16.23828125 C105.48004019 27.32257081 105.53316086 38.40680691 105.56559277 49.49127293 C105.58116795 54.63968824 105.60225518 59.78795147 105.63647461 64.9362793 C105.6693614 69.91596381 105.68707032 74.89550317 105.69478798 79.87528801 C105.70027937 81.76364358 105.71100062 83.6519923 105.72734642 85.54028511 C105.84617632 99.8527427 104.69778284 113.15127987 99.78515625 126.73828125 C99.40556763 127.79063965 99.40556763 127.79063965 99.01831055 128.86425781 C90.97190124 150.08901948 74.44246512 166.8150524 57.41015625 181.23828125 C56.37179577 182.12820657 55.33409256 183.0188991 54.296875 183.91015625 C49.38459522 188.129527 44.46537959 192.34066918 39.53515625 196.5390625 C38.90689941 197.0750708 38.27864258 197.6110791 37.63134766 198.16333008 C36.43170858 199.18671962 35.23092479 200.20876937 34.02880859 201.22924805 C31.03056638 203.7890139 28.15100934 206.40383805 25.41015625 209.23828125 C34.7707497 202.70693469 43.83951307 195.86348021 52.8203125 188.8203125 C56.52325256 185.91898327 60.26207269 183.0693459 64.01611328 180.23461914 C72.42822146 173.87333351 80.50495666 167.21746481 88.41015625 160.23828125 C89.31378906 159.44679687 90.21742188 158.6553125 91.1484375 157.83984375 C93.59788959 155.66847876 96.01194372 153.46604232 98.41015625 151.23828125 C99.24160156 150.47257813 100.07304687 149.706875 100.9296875 148.91796875 C120.24682643 130.46134752 125.61151129 109.26653891 126.33483887 83.29534912 C126.38477485 81.72430821 126.45463484 80.15376577 126.54504395 78.58453369 C126.81577328 73.56137097 126.86980957 69.08447936 125.41015625 64.23828125 C122.4528901 61.85019047 119.55724246 60.48332566 116.09960938 58.9284668 C113.41015625 57.23828125 113.41015625 57.23828125 112.42382812 54.66333008 C112.23121366 51.63091944 112.35342283 48.82289192 112.66015625 45.80078125 C112.74136719 44.27420898 112.74136719 44.27420898 112.82421875 42.71679688 C112.96515923 40.21510343 113.16140902 37.73117494 113.41015625 35.23828125 C120.25706708 37.89034355 126.86267461 40.8660923 133.34765625 44.30078125 C134.28653687 44.79288086 134.28653687 44.79288086 135.24438477 45.29492188 C136.98950968 46.23415387 138.70098291 47.23511417 140.41015625 48.23828125 C141.29195557 48.70484131 142.17375488 49.17140137 143.08227539 49.65209961 C146.81576324 53.79985387 146.08577679 58.19325972 146.00390625 63.58203125 C146.00394653 64.70210571 146.00398682 65.82218018 146.00402832 66.97619629 C145.99866521 69.35007321 145.98104909 71.7239492 145.95214844 74.09765625 C145.91063032 77.69718005 145.91105381 81.29481053 145.91796875 84.89453125 C145.90746352 87.20704405 145.8945183 89.51954729 145.87890625 91.83203125 C145.87870483 92.89498413 145.87850342 93.95793701 145.8782959 95.05310059 C145.49258213 119.95458622 132.88361442 138.74203024 115.9296875 155.72265625 C97.58122275 173.13236234 74.99170243 186.53140912 54.08096313 200.60626221 C33.12072556 214.71580835 12.21546895 228.90109585 -8.58984375 243.23828125 C-7.47351563 242.70460938 -6.3571875 242.1709375 -5.20703125 241.62109375 C-0.97056526 239.60067469 3.27368471 237.59711836 7.52099609 235.59960938 C9.48390797 234.67471529 11.44511616 233.74619856 13.40478516 232.81445312 C16.38037222 231.40231011 19.36307045 230.00628703 22.34765625 228.61328125 C23.28818848 228.16355957 24.2287207 227.71383789 25.19775391 227.25048828 C26.08124512 226.84169434 26.96473633 226.43290039 27.875 226.01171875 C28.65480225 225.64481934 29.43460449 225.27791992 30.23803711 224.89990234 C32.77109858 224.12833928 33.95939888 224.30518142 36.41015625 225.23828125 C44.75214382 230.97522709 53.33541892 238.13863147 59.41015625 246.23828125 C59.41015625 250.52828125 59.41015625 254.81828125 59.41015625 259.23828125 C29.05015625 259.23828125 -1.30984375 259.23828125 -32.58984375 259.23828125 C-32.58984375 245.31495857 -32.58984375 245.31495857 -26.14453125 238.74609375 C-19.23462208 232.60171388 -12.18676037 226.70206436 -4.80078125 221.13671875 C-4.07117188 220.51023437 -3.3415625 219.88375 -2.58984375 219.23828125 C-2.58984375 218.57828125 -2.58984375 217.91828125 -2.58984375 217.23828125 C-4.65521153 215.55932519 -4.65521153 215.55932519 -7.35546875 213.81640625 C-8.38115967 213.12748291 -9.40685059 212.43855957 -10.46362305 211.72875977 C-11.01400238 211.36356232 -11.56438171 210.99836487 -12.13143921 210.62210083 C-14.42994442 209.09664819 -16.71833569 207.55634807 -19.00712585 206.01637268 C-20.17389882 205.23135648 -21.34114967 204.4470501 -22.50886536 203.66343689 C-30.96057451 197.98673236 -39.2759385 192.11417458 -47.58984375 186.23828125 C-48.21858398 185.79468262 -48.84732422 185.35108398 -49.49511719 184.89404297 C-53.54470712 182.03347683 -57.57284076 179.14439656 -61.58984375 176.23828125 C-62.32589844 175.70734863 -63.06195313 175.17641602 -63.8203125 174.62939453 C-90.35551969 155.447643 -112.0708719 137.13445374 -117.93725586 103.02514648 C-119.19552273 94.65762212 -119.33817789 86.21013145 -119.42041016 77.76245117 C-119.45027179 75.68805195 -119.50536498 73.61387684 -119.58447266 71.54077148 C-120.24049988 54.30723336 -120.24049988 54.30723336 -116.35375977 49.43554688 C-113.48900566 47.58715899 -110.79159438 46.3896325 -107.58984375 45.23828125 C-106.19292843 44.46603417 -104.80894949 43.66944132 -103.4453125 42.83984375 C-102.22504686 42.1765724 -101.00245593 41.51755738 -99.77734375 40.86328125 C-99.16181641 40.52167969 -98.54628906 40.18007812 -97.91210938 39.828125 C-93.90169479 37.67619522 -91.26246518 37.01705149 -86.58984375 36.23828125 C-86.58984375 43.49828125 -86.58984375 50.75828125 -86.58984375 58.23828125 C-96.33984375 63.23828125 -96.33984375 63.23828125 -98.58984375 63.23828125 C-98.49499114 68.2515885 -98.38864041 73.2644853 -98.27246094 78.27734375 C-98.23460939 79.97617236 -98.19968785 81.67506926 -98.16796875 83.37402344 C-97.63394545 111.64388166 -91.57794225 133.27900983 -71.15234375 153.671875 C-65.47529395 158.91007391 -59.37873024 163.63507388 -53.27734375 168.36328125 C-50.22901108 170.72847806 -47.22414423 173.14249438 -44.2277832 175.57299805 C-29.52514881 187.4755052 -14.08767369 198.4036908 1.41015625 209.23828125 C-5.28626663 202.46985382 -12.26270384 196.04318526 -19.71484375 190.11328125 C-25.65942907 185.32840549 -31.15213092 180.09436717 -36.66455078 174.82177734 C-40.19731105 171.44963434 -43.7540028 168.26729648 -47.58984375 165.23828125 C-68.0384854 145.02908506 -78.62269678 118.42149385 -78.81689453 89.91625977 C-78.8239937 86.48305349 -78.80596683 83.050321 -78.78515625 79.6171875 C-78.78141567 77.77774715 -78.77857366 75.93830477 -78.77658081 74.09886169 C-78.76902647 69.31007161 -78.74945073 64.52140721 -78.72717285 59.73266602 C-78.70653544 54.82504983 -78.69754124 49.9174129 -78.6875 45.00976562 C-78.66619521 35.41921629 -78.63216124 25.82875931 -78.58984375 16.23828125 C-76.35505148 15.2678654 -74.11907297 14.30036004 -71.88232422 13.33447266 C-70.93953865 12.92455833 -70.93953865 12.92455833 -69.97770691 12.50636292 C-65.2892021 10.4855712 -60.66407463 8.84026852 -55.71484375 7.61328125 C-54.55178711 7.31599121 -54.55178711 7.31599121 -53.36523438 7.01269531 C-35.90235064 2.72585229 -17.98282773 0.15049104 0 0 Z " fill="#FEFCFC" transform="translate(188.58984375,70.76171875)"/>
<path d="M0 0 C8.4671515 -0.04647764 16.93424908 -0.08194724 25.40149689 -0.10362434 C29.33379138 -0.11403177 33.26599816 -0.12813496 37.19824219 -0.15087891 C40.99782668 -0.17271635 44.79732716 -0.18459147 48.5969696 -0.18975449 C50.04173605 -0.19343077 51.48649826 -0.20060933 52.93122864 -0.21146011 C66.32074516 -0.30796276 78.04290109 1.18702586 88.3125 10.625 C97.2331888 20.58317459 97.74195734 31.01976342 97.62890625 43.75 C97.62973692 45.45670727 97.63220373 47.16341443 97.63621521 48.87011719 C97.6390587 52.43058628 97.62451528 55.99042128 97.59692383 59.55078125 C97.56284332 64.08643927 97.56887304 68.62096499 97.5875864 73.15667725 C97.59821718 76.67603793 97.58916381 80.19514075 97.57420158 83.71447754 C97.56906377 85.3856123 97.56944733 87.05677449 97.57574654 88.72790527 C97.60744927 102.18797619 96.22376474 112.82276784 86.4765625 122.83984375 C75.32888242 132.56329341 60.31704518 133.46292149 46.16796875 133.29296875 C44.79649832 133.28735466 43.42502176 133.28309317 42.05354309 133.28010559 C38.49102363 133.26879905 34.92888708 133.23945966 31.36651611 133.20599365 C27.71249568 133.17498141 24.05841174 133.16153459 20.40429688 133.14648438 C13.26937718 133.11457184 6.13471395 133.06355397 -1 133 C-0.08552154 131.91481889 0.83170407 130.83195262 1.75 129.75 C2.26046875 129.14671875 2.7709375 128.5434375 3.296875 127.921875 C5 126 5 126 7.1678009 124.42390442 C10.15142331 120.47672665 9.5812772 116.28274229 9.56518555 111.4675293 C9.5770137 110.39554291 9.58884186 109.32355652 9.60102844 108.21908569 C9.63396193 104.67058927 9.63687224 101.12285805 9.63671875 97.57421875 C9.64703083 95.10805445 9.65809357 92.64189319 9.6698761 90.17573547 C9.68932534 85.00322579 9.69272415 79.83098657 9.6862793 74.65844727 C9.68028586 68.03356109 9.72449221 61.41007733 9.78216839 54.78547955 C9.81916173 49.69044263 9.82407038 44.59574377 9.81989479 39.50058937 C9.82276699 37.05855248 9.83684407 34.61650194 9.86237144 32.17459679 C9.89435232 28.75565406 9.88179068 25.33960416 9.8581543 21.9206543 C9.87703705 20.91417343 9.8959198 19.90769257 9.91537476 18.87071228 C9.82962672 13.65003317 9.38017848 10.79628136 5.57136536 7.06745911 C4.95262448 6.5627197 4.33388361 6.05798029 3.69639301 5.53794575 C1.82909875 3.84506135 0.98755568 2.2989247 0 0 Z " fill="#E10101" transform="translate(155,97)"/>
<path d="M0 0 C16 0 16 0 22 3 C25.62504106 7.27019088 26.50092591 10.28338672 26.50170898 15.828125 C26.50711197 16.4826062 26.51251495 17.1370874 26.51808167 17.81140137 C26.53050963 19.95807209 26.51411994 22.10338579 26.49609375 24.25 C26.49624888 25.75162832 26.49774016 27.25325703 26.50050354 28.75488281 C26.50188486 31.89536332 26.48937494 35.03538564 26.46655273 38.17578125 C26.43816843 42.19068483 26.44090877 46.20482772 26.45364285 50.2197876 C26.46061529 53.31858762 26.45279299 56.41721344 26.44038582 59.51599121 C26.43588649 60.99588349 26.43552118 62.47579457 26.43945122 63.95568848 C26.442379 66.02813714 26.42578421 68.09955679 26.40405273 70.171875 C26.39864975 71.3484668 26.39324677 72.52505859 26.38768005 73.73730469 C25.94913844 77.42804823 24.92539302 79.83613425 23 83 C20.4375 84.8125 20.4375 84.8125 18 86 C17.01 86.495 17.01 86.495 16 87 C10.72 87 5.44 87 0 87 C0 58.29 0 29.58 0 0 Z " fill="#FEF7F7" transform="translate(195,118)"/>
<path d="M0 0 C0.66 0.33 1.32 0.66 2 1 C-1.37871063 7.43563929 -6.91599214 11.1950808 -13 15 C-13.66 15 -14.32 15 -15 15 C-13.70602116 11.11806349 -11.82046071 10.01611079 -8.625 7.5 C-4.12495456 3.95788862 -4.12495456 3.95788862 0 0 Z " fill="#E52525" transform="translate(229,265)"/>
<path d="M0 0 C0.66 0.33 1.32 0.66 2 1 C1 4 1 4 -1.21484375 5.421875 C-2.56255859 6.07929688 -2.56255859 6.07929688 -3.9375 6.75 C-4.83339844 7.19859375 -5.72929687 7.6471875 -6.65234375 8.109375 C-7.42707031 8.40328125 -8.20179688 8.6971875 -9 9 C-9.66 8.67 -10.32 8.34 -11 8 C-7.37 5.36 -3.74 2.72 0 0 Z " fill="#E52525" transform="translate(190,306)"/>
<path d="M0 0 C0.66 0.33 1.32 0.66 2 1 C-1.44615385 6.78461538 -1.44615385 6.78461538 -4.25 7.875 C-4.8275 7.91625 -5.405 7.9575 -6 8 C-2.25 2.25 -2.25 2.25 0 0 Z " fill="#E41C1C" transform="translate(229,265)"/>
</svg>
